<svg xmlns="http://www.w3.org/2000/svg" xmlns:xlink="http://www.w3.org/1999/xlink" width="500" zoomAndPan="magnify" viewBox="0 0 375 374.999991" height="500" preserveAspectRatio="xMidYMid meet" version="1.0"><defs><clipPath id="9cd7fb58f7"><path d="M 156 312.59375 L 219.929688 312.59375 L 219.929688 339.65625 L 156 339.65625 Z M 156 312.59375 " clip-rule="nonzero"/></clipPath><clipPath id="8a27577a98"><path d="M 157 35.15625 L 218 35.15625 L 218 67 L 157 67 Z M 157 35.15625 " clip-rule="nonzero"/></clipPath></defs><g clip-path="url(#9cd7fb58f7)"><path fill="#ffac33" d="M 208.242188 312.90625 L 156.078125 312.90625 C 158.652344 328.121094 171.914062 339.746094 187.847656 339.746094 C 203.78125 339.746094 217.046875 328.121094 219.613281 312.90625 L 208.242188 312.90625 " fill-opacity="1" fill-rule="nonzero"/></g><g clip-path="url(#8a27577a98)"><path fill="#ffac33" d="M 169.148438 63.328125 C 175.207031 62.085938 181.457031 61.425781 187.847656 61.425781 C 194.242188 61.425781 200.488281 62.085938 206.542969 63.328125 C 208.492188 63.730469 210.421875 64.1875 212.328125 64.707031 C 214.234375 65.226562 216.121094 65.820312 217.984375 66.457031 C 217.640625 49.175781 204.257812 35.230469 187.847656 35.230469 C 171.4375 35.230469 158.054688 49.175781 157.710938 66.457031 C 159.574219 65.820312 161.457031 65.226562 163.367188 64.707031 C 165.273438 64.1875 167.203125 63.730469 169.148438 63.328125 " fill-opacity="1" fill-rule="nonzero"/></g><path fill="#ffac33" d="M 299.761719 270.898438 C 292.390625 263.9375 284.765625 256.742188 278.636719 246.84375 C 268.699219 230.789062 274.847656 171.65625 275.023438 169.984375 L 274.957031 169.53125 L 274.972656 169.039062 C 275.007812 167.957031 275.027344 166.953125 275.027344 165.976562 C 275.027344 125.582031 250.976562 91.097656 217.417969 78.089844 C 215.605469 77.390625 213.769531 76.75 211.90625 76.175781 C 210.078125 75.613281 208.230469 75.117188 206.359375 74.679688 C 200.390625 73.292969 194.195312 72.554688 187.847656 72.554688 C 181.496094 72.554688 175.304688 73.292969 169.335938 74.679688 C 167.464844 75.117188 165.613281 75.613281 163.789062 76.175781 C 161.925781 76.75 160.085938 77.390625 158.277344 78.089844 C 124.71875 91.097656 100.667969 125.582031 100.667969 165.976562 C 100.667969 166.953125 100.683594 167.957031 100.71875 169.039062 L 100.734375 169.53125 L 100.671875 169.984375 C 100.855469 171.746094 106.984375 230.800781 97.054688 246.84375 C 90.925781 256.742188 83.304688 263.9375 75.933594 270.898438 C 72.269531 274.355469 68.058594 281.214844 65.214844 288.363281 C 62.410156 295.417969 61.996094 299.953125 62.25 301.773438 L 314.023438 301.773438 C 314.34375 300.164062 313.96875 295.632812 310.886719 288.355469 C 307.902344 281.308594 303.535156 274.460938 299.761719 270.898438 " fill-opacity="1" fill-rule="nonzero"/><path fill="#ffffff" d="M 67.96875 219.832031 C 72.097656 216.890625 73.058594 211.15625 70.117188 207.027344 C 62.636719 196.523438 58.679688 184.132812 58.679688 171.183594 C 58.679688 158.835938 62.304688 146.917969 69.15625 136.722656 C 71.988281 132.515625 70.871094 126.808594 66.664062 123.980469 C 62.453125 121.152344 56.746094 122.269531 53.917969 126.476562 C 45.019531 139.710938 40.316406 155.171875 40.316406 171.183594 C 40.316406 187.972656 45.449219 204.050781 55.160156 217.683594 C 56.953125 220.199219 59.777344 221.539062 62.644531 221.539062 C 64.488281 221.539062 66.351562 220.984375 67.96875 219.832031 " fill-opacity="1" fill-rule="nonzero"/><path fill="#ffffff" d="M 22.261719 171.183594 C 22.261719 152.144531 27.703125 133.683594 38.007812 117.792969 C 41.351562 112.632812 39.878906 105.742188 34.722656 102.398438 C 29.566406 99.054688 22.671875 100.523438 19.328125 105.683594 C 6.683594 125.1875 0 147.839844 0 171.183594 C 0 196.875 7.96875 221.402344 23.050781 242.105469 C 25.230469 245.09375 28.617188 246.679688 32.058594 246.679688 C 34.328125 246.679688 36.625 245.984375 38.597656 244.546875 C 43.566406 240.925781 44.664062 233.964844 41.042969 229 C 28.753906 212.125 22.261719 192.132812 22.261719 171.183594 " fill-opacity="1" fill-rule="nonzero"/><path fill="#ffffff" d="M 307.675781 123.140625 C 303.511719 126.03125 302.476562 131.753906 305.367188 135.921875 C 312.554688 146.28125 316.355469 158.457031 316.355469 171.125 C 316.355469 183.433594 312.753906 195.316406 305.941406 205.492188 C 303.121094 209.703125 304.25 215.40625 308.460938 218.226562 C 310.03125 219.277344 311.804688 219.78125 313.5625 219.78125 C 316.523438 219.78125 319.429688 218.351562 321.203125 215.707031 C 330.042969 202.5 334.71875 187.082031 334.71875 171.125 C 334.71875 154.695312 329.785156 138.902344 320.453125 125.453125 C 317.566406 121.285156 311.84375 120.25 307.675781 123.140625 " fill-opacity="1" fill-rule="nonzero"/><path fill="#ffffff" d="M 356.757812 107.277344 C 353.5 102.066406 346.632812 100.484375 341.421875 103.742188 C 336.207031 107.003906 334.625 113.871094 337.886719 119.082031 C 347.628906 134.65625 352.773438 152.652344 352.773438 171.125 C 352.773438 188.691406 348.089844 205.925781 339.230469 220.960938 C 336.109375 226.257812 337.871094 233.082031 343.167969 236.199219 C 344.945312 237.246094 346.890625 237.742188 348.808594 237.742188 C 352.621094 237.742188 356.332031 235.785156 358.40625 232.261719 C 369.285156 213.804688 375.035156 192.664062 375.035156 171.125 C 375.035156 148.472656 368.714844 126.394531 356.757812 107.277344 " fill-opacity="1" fill-rule="nonzero"/></svg>