<svg xmlns="http://www.w3.org/2000/svg" xmlns:xlink="http://www.w3.org/1999/xlink" width="500" zoomAndPan="magnify" viewBox="0 0 375 374.999991" height="500" preserveAspectRatio="xMidYMid meet" version="1.0"><path fill="#f7e3b5" d="M 334.496094 172.28125 C 334.464844 172.234375 334.449219 172.199219 334.433594 172.167969 L 219.027344 51.265625 C 203.167969 35.667969 201.035156 29.957031 188.132812 29.957031 C 178.105469 29.957031 171.132812 36.527344 154.082031 53.097656 L 42.511719 172.132812 C 39.109375 175.535156 36.960938 180.320312 36.960938 185.667969 L 36.960938 356.332031 C 36.960938 366.597656 44.824219 374.933594 54.523438 374.933594 L 322.320312 374.933594 C 332.019531 374.933594 339.882812 366.597656 339.882812 356.332031 L 339.882812 185.667969 C 339.882812 180.402344 337.820312 175.664062 334.496094 172.28125 " fill-opacity="1" fill-rule="nonzero"/><path fill="#ea8342" d="M 196.410156 327.019531 C 192.179688 327.019531 188.746094 322.660156 188.746094 317.246094 L 188.746094 244.441406 C 188.746094 239.046875 192.179688 234.671875 196.410156 234.671875 L 304.875 234.671875 C 309.105469 234.671875 312.523438 239.046875 312.523438 244.441406 L 312.523438 317.246094 C 312.523438 322.660156 309.105469 327.019531 304.875 327.019531 L 196.410156 327.019531 " fill-opacity="1" fill-rule="nonzero"/><path fill="#e0464c" d="M 359.3125 169.230469 L 196.164062 6.238281 C 192.113281 2.203125 187.800781 -0.0351562 184.300781 3.457031 C 184.300781 3.457031 174.4375 11.007812 172.339844 13.121094 L 15.78125 169.527344 C 11.898438 173.40625 9.78125 177.582031 13.285156 181.0625 L 23.050781 190.835938 C 26.550781 194.332031 30.730469 192.21875 34.613281 188.34375 L 187.6875 35.421875 L 340.460938 188.0625 C 344.511719 192.089844 348.820312 194.332031 352.324219 190.835938 L 362.105469 181.0625 C 365.589844 177.582031 363.359375 173.273438 359.3125 169.230469 " fill-opacity="1" fill-rule="nonzero"/><path fill="#ea8342" d="M 169.28125 374.6875 L 169.28125 244.046875 C 169.28125 238.863281 165.085938 234.671875 159.898438 234.671875 L 90.011719 234.671875 C 84.839844 234.671875 80.628906 238.863281 80.628906 244.046875 L 80.628906 374.6875 L 169.28125 374.6875 " fill-opacity="1" fill-rule="nonzero"/><path fill="#a6d1ee" d="M 203.265625 318.238281 C 199.566406 318.238281 196.558594 314.707031 196.558594 310.332031 L 196.558594 251.359375 C 196.558594 247 199.566406 243.453125 203.265625 243.453125 L 298.019531 243.453125 C 301.71875 243.453125 304.710938 247 304.710938 251.359375 L 304.710938 310.332031 C 304.710938 314.707031 301.71875 318.238281 298.019531 318.238281 L 203.265625 318.238281 " fill-opacity="1" fill-rule="nonzero"/><path fill="#f8a64b" d="M 304.710938 266.394531 L 304.710938 251.359375 C 304.710938 247 301.71875 243.453125 298.019531 243.453125 L 203.265625 243.453125 C 199.566406 243.453125 196.558594 247 196.558594 251.359375 L 196.558594 266.394531 L 304.710938 266.394531 " fill-opacity="1" fill-rule="nonzero"/><path fill="#ea8342" d="M 216.085938 152.277344 C 216.085938 167.957031 203.367188 180.667969 187.671875 180.667969 C 171.957031 180.667969 159.238281 167.957031 159.238281 152.277344 C 159.238281 136.597656 171.957031 123.871094 187.671875 123.871094 C 203.367188 123.871094 216.085938 136.597656 216.085938 152.277344 " fill-opacity="1" fill-rule="nonzero"/><path fill="#a6d1ee" d="M 209.28125 152.277344 C 209.28125 164.195312 199.597656 173.867188 187.671875 173.867188 C 175.742188 173.867188 166.058594 164.195312 166.058594 152.277344 C 166.058594 140.34375 175.742188 130.6875 187.671875 130.6875 C 199.597656 130.6875 209.28125 140.34375 209.28125 152.277344 " fill-opacity="1" fill-rule="nonzero"/><path fill="#53c285" d="M 340.875 342.15625 C 337.371094 342.15625 334.152344 343.261719 331.507812 345.140625 C 331.738281 344.183594 331.886719 343.195312 331.886719 342.15625 C 331.886719 335.207031 326.253906 329.578125 319.296875 329.578125 C 314.871094 329.578125 310.972656 331.871094 308.742188 335.320312 C 306.492188 331.871094 302.609375 329.578125 298.167969 329.578125 C 295.820312 329.578125 293.625 330.238281 291.738281 331.359375 C 290.085938 324.179688 283.660156 318.800781 275.976562 318.800781 C 268.082031 318.800781 261.503906 324.460938 260.085938 331.921875 C 258.019531 330.453125 255.507812 329.578125 252.765625 329.578125 C 249.164062 329.578125 245.925781 331.113281 243.613281 333.539062 C 240.753906 329 235.714844 325.996094 229.949219 325.996094 C 221.011719 325.996094 213.757812 333.226562 213.757812 342.15625 C 213.757812 342.582031 213.792969 343.027344 213.824219 343.441406 C 211.875 342.617188 209.726562 342.15625 207.480469 342.15625 C 198.542969 342.15625 191.289062 349.398438 191.289062 358.328125 C 191.289062 367.257812 198.542969 374.488281 207.480469 374.488281 L 340.875 374.488281 C 349.8125 374.488281 357.050781 367.257812 357.050781 358.328125 C 357.050781 349.398438 349.8125 342.15625 340.875 342.15625 " fill-opacity="1" fill-rule="nonzero"/></svg>