<svg xmlns="http://www.w3.org/2000/svg" xmlns:xlink="http://www.w3.org/1999/xlink" width="500" zoomAndPan="magnify" viewBox="0 0 375 374.999991" height="500" preserveAspectRatio="xMidYMid meet" version="1.0"><defs><g/></defs><path fill="#004ad8" d="M 357.277344 256.027344 C 346.726562 251.828125 336.886719 246.730469 326.402344 243.972656 C 309.511719 239.519531 294.828125 245.097656 283.0625 257.789062 C 275.109375 266.382812 274.375 284.71875 281.105469 297.992188 C 286.882812 308.679688 295.621094 317.472656 306.269531 323.316406 C 309.476562 325.335938 313.003906 327.195312 317.269531 329.730469 C 295.210938 350.054688 270.589844 361.050781 241 356.976562 C 202.53125 351.65625 173.230469 330.59375 148.515625 301.96875 C 147.757812 300.941406 147.0625 299.871094 146.429688 298.761719 C 156.046875 301.101562 164.992188 304.273438 174 305.171875 C 184.835938 306.167969 195.863281 304.980469 206.828125 305.171875 C 211.078125 305.160156 215.316406 305.632812 219.460938 306.582031 C 226.800781 308.378906 234.042969 310.75 241.324219 312.996094 L 242.21875 310.78125 L 230.101562 297.960938 C 233.308594 295.972656 235.519531 294.433594 237.890625 292.957031 C 262.382812 277.699219 276.9375 255.835938 282.964844 227.625 C 284.792969 219.128906 289.375 211.210938 292.871094 202.621094 L 302.199219 206.179688 C 292.582031 197.90625 299.925781 189.730469 301.878906 181.398438 C 304.347656 170.816406 306.113281 160.078125 308.292969 149.339844 C 347.371094 164.726562 374.972656 211.882812 357.277344 256.027344 Z M 357.277344 256.027344 " fill-opacity="1" fill-rule="nonzero"/><path fill="#d6d000" d="M 111.289062 358.871094 C 94.496094 355.550781 78.957031 347.625 66.410156 335.980469 C 63.882812 334.015625 61.214844 332.234375 58.425781 330.660156 C 63.910156 327.453125 66.988281 325.722656 70 323.894531 C 83.402344 315.6875 94.332031 305.398438 98.082031 289.464844 C 104.878906 260.804688 81.796875 237.242188 52.242188 243.207031 C 43.390625 245 35.058594 249.390625 26.59375 252.824219 C 23.535156 254.328125 20.566406 256.019531 17.714844 257.886719 C 12.265625 234.710938 12.425781 213.007812 23.613281 192.746094 C 47.59375 149.46875 88.785156 133.953125 133.667969 124.945312 L 135.015625 126.804688 C 130.101562 130.804688 125.53125 135.210938 121.355469 139.980469 C 113.054688 151.007812 105.617188 162.644531 97.699219 173.929688 C 95.84375 176.941406 93.53125 179.644531 90.839844 181.941406 C 82.632812 188 74.425781 193.933594 68.398438 204.382812 L 90.839844 199.03125 L 90.839844 209 C 90.839844 239.199219 102.667969 263.820312 125.074219 283.855469 C 130.292969 289.097656 135.183594 294.65625 139.726562 300.492188 L 131.871094 307.097656 C 143.925781 303.890625 147.578125 313.988281 153.925781 319.917969 C 161.6875 327.292969 169.957031 334.027344 178.453125 341.335938 C 165.886719 351.242188 150.273438 354.703125 134.949219 358.839844 Z M 111.289062 358.871094 " fill-opacity="1" fill-rule="nonzero"/><path fill="#004ad8" d="M 366.605469 298.988281 C 358.558594 319.855469 343.910156 328.0625 322.046875 322.933594 C 303.132812 318.511719 289.441406 307.449219 284.1875 288.117188 C 279.089844 269.300781 291.398438 252.246094 310.890625 249.648438 C 323.238281 248.191406 335.695312 251.269531 345.945312 258.3125 C 356.195312 265.351562 363.539062 275.878906 366.605469 287.925781 Z M 366.605469 298.988281 " fill-opacity="1" fill-rule="nonzero"/><path fill="#00a635" d="M 194.800781 8.992188 C 224.167969 18.320312 231.828125 58.9375 213.074219 82.726562 C 199.769531 99.554688 178.515625 100.070312 164.058594 84.199219 C 145.882812 64.324219 148.027344 20.789062 180.632812 9.058594 Z M 194.800781 8.992188 " fill-opacity="1" fill-rule="nonzero"/><path fill="#d6d000" d="M 8.824219 287.964844 C 19.242188 260.492188 38.734375 246.960938 63.769531 249.816406 C 68.566406 250.164062 73.210938 251.644531 77.324219 254.132812 C 81.4375 256.625 84.902344 260.058594 87.429688 264.148438 C 89.957031 268.238281 91.480469 272.867188 91.871094 277.660156 C 92.261719 282.453125 91.507812 287.269531 89.675781 291.714844 C 85.414062 302.523438 77.53125 311.515625 67.375 317.152344 C 57.214844 322.789062 45.414062 324.722656 33.988281 322.621094 C 20.269531 319.605469 12.480469 310.535156 8.824219 297.421875 Z M 8.824219 287.964844 " fill-opacity="1" fill-rule="nonzero"/><path fill="#00a635" d="M 249.820312 111.246094 L 244.496094 128.558594 C 229.367188 123.78125 215.230469 118.621094 200.707031 114.933594 C 186.183594 111.246094 172.140625 114.933594 157.972656 118.140625 C 149.15625 120.125 139.988281 120.738281 130.433594 122.019531 L 129.183594 112.015625 C 125.980469 124.003906 115.976562 122.660156 107.449219 124.839844 C 97.128906 127.5 87.15625 131.570312 76.996094 135.035156 C 63.339844 100.121094 102.03125 45.015625 145.40625 38.859375 C 146.175781 47.578125 146.464844 56.363281 147.875 64.988281 C 148.804688 71.25 151.0625 77.242188 154.496094 82.558594 C 157.929688 87.878906 162.460938 92.402344 167.78125 95.828125 C 184.484375 106.886719 203.046875 103.9375 216.125 88.324219 C 225.359375 77.265625 228.179688 64.089844 228.949219 50.207031 C 229.140625 46.296875 228.949219 42.386719 228.949219 37.386719 C 231.515625 38.027344 233.695312 38.347656 235.714844 39.085938 C 274.984375 53.382812 295.019531 82.492188 299.058594 123.109375 C 301.542969 147.574219 298.417969 172.289062 289.921875 195.367188 C 289.089844 197.546875 288.128906 199.695312 287.101562 201.777344 C 286.8125 202.417969 286.140625 202.867188 285.050781 204.054688 C 283.734375 197.644531 283.542969 191.457031 281.203125 186.230469 C 275.59375 173.632812 268.859375 161.578125 262.804688 149.171875 C 260.71875 144.910156 259.066406 140.457031 257.867188 135.867188 C 255.878906 127.628906 254.46875 119.230469 252.800781 110.894531 Z M 249.820312 111.246094 " fill-opacity="1" fill-rule="nonzero"/><path fill="#ca8400" d="M 187.074219 296.101562 C 169.945312 295.941406 153.246094 290.714844 139.082031 281.078125 C 124.917969 271.441406 113.921875 257.828125 107.488281 241.953125 C 101.050781 226.078125 99.457031 208.652344 102.910156 191.871094 C 106.363281 175.09375 114.707031 159.710938 126.886719 147.667969 C 139.070312 135.621094 154.546875 127.453125 171.363281 124.195312 C 188.183594 120.933594 205.589844 122.722656 221.390625 129.34375 C 237.191406 135.960938 250.679688 147.109375 260.152344 161.382812 C 269.628906 175.652344 274.664062 192.414062 274.625 209.542969 C 274.574219 220.980469 272.269531 232.292969 267.839844 242.835938 C 263.410156 253.382812 256.941406 262.949219 248.8125 270.988281 C 240.675781 279.027344 231.039062 285.386719 220.445312 289.695312 C 209.851562 294.003906 198.511719 296.179688 187.074219 296.101562 Z M 119.113281 209 C 118.988281 222.558594 122.882812 235.847656 130.3125 247.191406 C 137.742188 258.53125 148.367188 267.417969 160.84375 272.71875 C 173.324219 278.023438 187.09375 279.503906 200.417969 276.980469 C 213.738281 274.453125 226.011719 268.03125 235.679688 258.53125 C 245.355469 249.03125 251.992188 236.875 254.753906 223.601562 C 257.515625 210.324219 256.277344 196.53125 251.199219 183.960938 C 246.117188 171.390625 237.421875 160.605469 226.214844 152.976562 C 215.007812 145.347656 201.789062 141.214844 188.230469 141.101562 C 179.230469 141.015625 170.304688 142.707031 161.960938 146.074219 C 153.617188 149.441406 146.019531 154.417969 139.597656 160.726562 C 133.179688 167.03125 128.066406 174.539062 124.550781 182.824219 C 121.035156 191.105469 119.1875 200 119.113281 209 Z M 119.113281 209 " fill-opacity="1" fill-rule="nonzero"/><g fill="#ffd04f" fill-opacity="1"><g transform="translate(148.819332, 243.693954)"><g><path d="M 58.640625 -67.046875 C 59.816406 -67.046875 60.40625 -66.320312 60.40625 -64.875 L 60.40625 -57.359375 C 60.40625 -55.972656 59.816406 -55.28125 58.640625 -55.28125 L 19.84375 -55.28125 C 18.769531 -55.28125 18.234375 -54.585938 18.234375 -53.203125 L 18.234375 -41.359375 C 18.234375 -40.023438 18.769531 -39.359375 19.84375 -39.359375 L 52.875 -39.359375 C 57.519531 -39.359375 61.039062 -37.921875 63.4375 -35.046875 C 65.78125 -32.210938 66.953125 -28.179688 66.953125 -22.953125 L 66.953125 -15.59375 C 66.953125 -10.957031 65.804688 -7.171875 63.515625 -4.234375 C 61.222656 -1.359375 57.625 0.078125 52.71875 0.078125 L 8.3125 0.078125 C 7.09375 0.078125 6.484375 -0.640625 6.484375 -2.078125 L 6.484375 -9.515625 C 6.484375 -10.960938 7.09375 -11.6875 8.3125 -11.6875 L 50.796875 -11.6875 C 52.347656 -11.6875 53.441406 -12.164062 54.078125 -13.125 C 54.722656 -14.082031 55.046875 -15.414062 55.046875 -17.125 L 55.046875 -22.953125 C 55.046875 -26.523438 53.65625 -28.3125 50.875 -28.3125 L 13.84375 -28.3125 C 11.125 -28.3125 9.203125 -28.953125 8.078125 -30.234375 C 6.960938 -31.515625 6.40625 -33.597656 6.40625 -36.484375 L 6.40625 -58.875 C 6.40625 -61.707031 6.960938 -63.765625 8.078125 -65.046875 C 9.203125 -66.378906 11.125 -67.046875 13.84375 -67.046875 Z M 58.640625 -67.046875 "/></g></g></g></svg>