<!DOCTYPE svg PUBLIC "-//W3C//DTD SVG 1.1//EN" "http://www.w3.org/Graphics/SVG/1.1/DTD/svg11.dtd">
<svg xmlns="http://www.w3.org/2000/svg" viewBox="0 0 512 512">
<path fill="#fafbfb" stroke="#fafbfb" d="M242.5 1.352c-13.596 4.495-24.28 13.791-30.272 26.34-5.634 11.8-5.634 28.816 0 40.616 6.176 12.933 17.091 22.222 30.949 26.337L248 96.077V144.558l-8.75 1.216c-17.082 2.376-36.116 10.19-49.596 20.363l-6.846 5.166-28.475-28.474-28.474-28.474 2.177-6.428C138.95 75.702 98.978 50.862 74.92 74.92s.782 64.03 33.007 53.116l6.428-2.177 28.474 28.474 28.474 28.475-5.166 6.846c-10.173 13.48-17.987 32.514-20.363 49.596l-1.216 8.75H96.077l-1.138-4.225c-3.604-13.387-13.737-25.39-26.631-31.547-11.8-5.634-28.816-5.634-40.616 0-10.515 5.021-18.443 12.949-23.464 23.464-5.634 11.8-5.634 28.816 0 40.616 19.4 40.629 79.025 35.316 90.711-8.083L96.077 264H144.558l1.216 8.75c2.37 17.041 9.47 34.489 19.779 48.604l5.736 7.853-28.467 28.467-28.467 28.467-6.428-2.177c-33.776-11.439-57.98 32.148-30.78 55.43 24.176 20.693 61.165-4.98 50.889-35.321l-2.177-6.428 28.509-28.508 28.508-28.509 7.312 5.582c14.04 10.719 32.177 18.344 49.562 20.837l8.25 1.183v47.693l-4.225 1.138c-13.387 3.604-25.39 13.737-31.547 26.631-5.634 11.8-5.634 28.816 0 40.616 14.535 30.439 54.173 37.451 77.852 13.772 10.133-10.133 13.42-18.48 13.42-34.08 0-12.369-.039-12.582-3.728-20.308-6.157-12.894-18.16-23.027-31.547-26.631L264 415.923v-47.575l10.25-1.792c20.222-3.536 34.382-9.944 53.662-24.282 1.428-1.062 5.437 2.563 29.938 27.076l28.289 28.302-2.176 6.424c-11.438 33.773 32.151 57.975 55.431 30.777 20.721-24.208-4.94-61.178-35.321-50.889l-6.428 2.177-28.33-28.33-28.33-28.33 4.445-5.943c10.831-14.481 17.966-31.122 21.132-49.288l1.786-10.25h47.575l1.138 4.225c9.637 35.79 54.868 48.006 80.999 21.875 5.759-5.759 12.94-18.113 12.94-22.263 0-.945.45-1.997 1-2.337.559-.345 1-5.03 1-10.618 0-6.412-.359-9.778-1-9.382-.55.34-1-.209-1-1.219 0-4.254-7.11-16.551-12.94-22.381-10.111-10.111-18.47-13.4-34.06-13.4-12.369 0-12.582.039-20.308 3.728-12.894 6.157-23.027 18.16-26.631 31.547L415.923 248H368.23l-1.183-8.25c-2.43-16.946-10.363-36.131-20.689-50.031l-5.359-7.214 28.323-28.323 28.323-28.323 6.428 2.177c32.186 10.901 57.035-29.088 33.007-53.116-24.056-24.056-64.03.782-53.117 33.004l2.176 6.424-28.289 28.302c-24.501 24.513-28.51 28.138-29.938 27.076-19.956-14.842-37.605-22.307-57.573-24.353l-6.339-.649V96.077l4.225-1.138c13.387-3.604 25.39-13.737 31.547-26.631 5.634-11.8 5.634-28.816 0-40.616C291.445 10.253 276.715.699 257.5.274c-7.07-.157-12.429.228-15 1.078M.37 256c0 5.775.165 8.137.367 5.25.202-2.887.202-7.613 0-10.5-.202-2.887-.367-.525-.367 5.25" fill-rule="evenodd"/>
<path fill="#fbc445" stroke="#fbc445" d="M244 1.366C215.041 9.811 200.318 40.26 212.022 67.5c5.367 12.491 20.072 24.739 32.504 27.071l3.44.645.267 24.498.267 24.497h15l.267-24.605c.255-23.384.362-24.606 2.161-24.606 3.637 0 12.706-4.154 18.454-8.453 30.636-22.915 24.255-69.257-11.518-83.644C266.183.217 250.758-.605 244 1.366M86 67.742c-6.352 2.237-16.131 12.206-18.329 18.686-8.881 26.187 17.305 51.523 41.973 40.611l4.772-2.11 28.776 28.763 28.777 28.764 5.015-4.941c2.759-2.717 5.016-5.43 5.016-6.029 0-.599-12.81-13.829-28.467-29.401l-28.467-28.312 1.542-2.983c3.696-7.145 3.367-19.998-.715-28-6.94-13.604-24.829-20.352-39.893-15.048m317.763-.228c-16.885 6.202-25.829 26.244-18.802 42.13l2.11 4.772-28.586 28.599-28.586 28.599 5.193 5.193c2.857 2.856 5.47 5.193 5.807 5.193.338 0 13.382-12.774 28.987-28.386l28.374-28.387 4.434 1.962c12.214 5.403 29.711.35 37.377-10.793 15-21.801.119-50.606-25.999-50.326-3.615.039-8.254.689-10.309 1.444M249.012 185.132c-21.468 2.644-37.819 20.561-40.262 44.117l-1.094 10.55-7.082.357C187.199 240.832 184 245.434 184 264c0 18.581 3.195 23.168 16.609 23.845l7.117.36.508 10.711c1.045 22.036 8.077 28.535 30.91 28.568 13.6.019 15.856-1.046 15.856-7.484 0-6.245-2.178-7.318-16.135-7.953-10.378-.472-12.224-.813-13.447-2.488-1.17-1.602-1.418-9.209-1.417-43.5l.001-41.559 2.88-6c11.709-24.389 45.187-24.966 57.954-1l2.664 5 .5 34.147c.465 31.779.632 34.293 2.405 36.25 3.698 4.083 12.595 1.879 12.595-3.12 0-1.255 1.535-1.636 7.75-1.921C324.856 287.208 328 282.86 328 264c0-18.566-3.199-23.168-16.574-23.844l-7.082-.357-1.094-10.55c-2.335-22.511-18.655-41.284-38.017-43.729-2.603-.329-5.858-.731-7.233-.893-1.375-.162-5.419.065-8.988.505M36 209.366c-43.703 12.745-48.72 72.297-7.622 90.477 26.999 11.943 60.991-4.64 66.177-32.285l.661-3.524 24.498-.267 24.497-.267v-15l-24.497-.267-24.498-.267-.686-3.733c-2.437-13.264-15.073-27.461-29.666-33.33-6.681-2.686-22.106-3.508-28.864-1.537m415.956.005c-17.201 4.985-31.616 19.64-34.514 35.088l-.665 3.541H368v16h48.777l.665 3.541c1.707 9.101 8.988 20.112 17.555 26.549 40.932 30.756 94.641-14.771 71.465-60.577-9.45-18.677-34.729-29.874-54.506-24.142M142.959 358.537l-28.537 28.537-4.775-2.112c-12.565-5.558-29.947-.654-37.718 10.642-18.075 26.27 7.699 59.487 37.504 48.335 16.191-6.057 24.915-27.763 17.175-42.729l-1.542-2.983 28.467-28.312C169.19 354.343 182 341.113 182 340.514c0-1.034-9.05-10.514-10.037-10.514-.257 0-13.309 12.842-29.004 28.537m191.733-23.21-4.808 5.044 28.594 28.607 28.593 28.606-2.11 4.772c-7.105 16.061 2.011 36.136 19.154 42.184 24.082 8.497 48.922-16.343 40.425-40.425-5.977-16.942-26.134-26.254-41.814-19.318l-4.403 1.948-28.411-28.342c-15.627-15.588-28.862-28.292-29.412-28.231-.55.061-3.164 2.38-5.808 5.155M248 392.389v24.388l-3.685.692c-18.829 3.532-34.764 22.827-36.078 43.684-2.549 40.439 43.762 65.615 76.145 41.394 26.886-20.11 26.018-59.351-1.735-78.446-4.908-3.377-13.658-7.101-16.684-7.101-1.897 0-1.963-.821-1.963-24.5V368h-16v24.389" fill-rule="evenodd"/>
<path fill="#04c4fb" stroke="#04c4fb" d="M246.51 1.112c-47.999 9.76-51.142 77.985-4.26 92.476l5.75 1.777V144h16V95.365l5.75-1.777c44.091-13.628 45.233-75.622 1.669-90.617C264.335.533 253.38-.285 246.51 1.112m2.67 32.513c-10.725 5.468-12.065 19.784-2.533 27.055 9.555 7.288 23.727 1.049 25.091-11.045 1.344-11.926-11.997-21.395-22.558-16.01M92.455 92.455C87.829 97.08 91.192 105 97.78 105c3.602 0 7.22-3.688 7.22-7.36 0-3.474-4.09-7.64-7.5-7.64-1.425 0-3.695 1.105-5.045 2.455m317 0C404.763 97.146 407.834 105 414.36 105c3.474 0 7.64-4.09 7.64-7.5 0-3.334-4.166-7.5-7.5-7.5-1.425 0-3.695 1.105-5.045 2.455m-287.067 24.618c-1.161 1.655-3.498 4.032-5.192 5.282l-3.081 2.273 28.713 28.7 28.713 28.7 5.217-5.283 5.217-5.283-28.737-28.699-28.738-28.7-2.112 3.01m236.284 25.755-28.7 28.713 5.283 5.217 5.283 5.217 28.699-28.737 28.7-28.738-3.01-2.112c-1.655-1.161-4.032-3.498-5.282-5.192l-2.273-3.081-28.7 28.713M38.51 209.112c-27.95 5.683-44.796 35.397-35.458 62.539 14.912 43.343 76.955 42.04 90.536-1.901l1.777-5.75H144v-16H95.365l-1.777-5.75c-7.235-23.407-31.407-37.951-55.078-33.138m416 0c-16.474 3.35-31.284 16.838-36.084 32.865L416.621 248H368v16H416.635l1.777 5.75c10.816 34.994 55.771 45.557 80.36 18.882 31.186-33.833.671-88.656-44.262-79.52M41.18 241.625c-10.725 5.468-12.065 19.784-2.533 27.055 9.555 7.288 23.727 1.049 25.091-11.045 1.344-11.926-11.997-21.395-22.558-16.01m153.32-.122c-8.252 2.919-10.917 9.364-10.338 24.999.57 15.39 4.521 20.221 17.384 21.254l6.454.518V240l-4.75.044c-2.613.024-6.55.681-8.75 1.459M304 264v24.274l6.454-.518c13.706-1.1 17.046-5.755 17.046-23.756s-3.34-22.656-17.046-23.756l-6.454-.518V264m153.18-22.375c-10.725 5.468-12.065 19.784-2.533 27.055 9.555 7.288 23.727 1.049 25.091-11.045 1.344-11.926-11.997-21.395-22.558-16.01M142.763 358.762l-28.7 28.738 3.01 2.112c1.655 1.161 4.032 3.498 5.282 5.192l2.273 3.081 28.7-28.713 28.7-28.713-5.283-5.217-5.283-5.217-28.699 28.737m192.479-23.507-5.217 5.283 28.737 28.699 28.738 28.7 2.112-3.01c1.161-1.655 3.498-4.032 5.192-5.282l3.081-2.273-28.713-28.7-28.713-28.7-5.217 5.283M248 392.311v24.31l-6.023 1.805c-29.963 8.975-43.005 45.038-25.917 71.667 18.273 28.477 61.607 28.477 79.88 0 17.202-26.807 4.244-62.274-26.19-71.681l-5.75-1.777V368h-16v24.311M92.455 409.455C87.951 413.959 91.185 422 97.5 422c3.486 0 7.5-4.164 7.5-7.78 0-6.388-7.916-9.395-12.545-4.765m316.719-.141c-4.265 4.541-.846 12.686 5.326 12.686 1.425 0 3.695-1.105 5.045-2.455S422 415.925 422 414.5c0-6.284-8.547-9.74-12.826-5.186M249.18 449.625c-10.725 5.468-12.065 19.784-2.533 27.055 9.555 7.288 23.727 1.049 25.091-11.045 1.344-11.926-11.997-21.395-22.558-16.01" fill-rule="evenodd"/>
<path fill="#c0d9e0" stroke="#c0d9e0" d="M249 119.75V144h14V95.5h-14v24.25m-129.308.577-4.808 5.044 28.289 28.302 28.289 28.302 5.283-5.217 5.283-5.217-28.257-28.271c-15.542-15.548-28.486-28.206-28.764-28.129-.279.078-2.671 2.411-5.315 5.186m238.537 22.943-28.257 28.271 5.283 5.217 5.283 5.217 28.281-28.294 28.282-28.295-5.194-5.193c-2.856-2.856-5.244-5.193-5.306-5.193-.063 0-12.83 12.722-28.372 28.27M95.5 256v7H144v-14H95.5v7m272.5 0v7h48.5v-14H368v7M143.181 358.319l-28.282 28.295 5.246 5.245 5.246 5.246 28.32-28.321 28.321-28.321-5.285-5.219-5.285-5.219-28.281 28.294m192.063-23.066-5.219 5.285 28.294 28.281 28.295 28.282 5.245-5.246 5.246-5.246-28.321-28.32-28.321-28.321-5.219 5.285M249 392.25v24.25h14V368h-14v24.25" fill-rule="evenodd"/>
</svg>