<svg xmlns="http://www.w3.org/2000/svg" xmlns:xlink="http://www.w3.org/1999/xlink" width="500" zoomAndPan="magnify" viewBox="0 0 375 374.999991" height="500" preserveAspectRatio="xMidYMid meet" version="1.0"><path fill="#d1d1d1" d="M 292.984375 125.023438 L 283.226562 127.730469 C 278.601562 129.019531 274.933594 123.769531 277.722656 119.863281 L 283.605469 111.625 C 284.859375 109.578125 282.789062 107.117188 280.5625 107.996094 L 272 112.082031 C 267.476562 114.234375 262.746094 109.519531 264.910156 104.992188 L 268.996094 96.433594 C 269.878906 94.203125 267.414062 92.132812 265.371094 93.386719 L 257.128906 99.269531 C 253.214844 102.0625 247.976562 98.394531 249.261719 93.765625 L 251.96875 84.011719 C 252.449219 81.660156 249.660156 80.058594 247.871094 81.640625 L 240.773438 88.863281 C 237.410156 92.28125 231.609375 89.574219 232.070312 84.804688 L 233.039062 74.726562 C 233.101562 72.324219 230.074219 71.226562 228.585938 73.101562 L 222.84375 81.445312 C 220.128906 85.398438 213.945312 83.746094 213.566406 78.960938 L 212.773438 68.871094 C 212.421875 66.5 209.25 65.9375 208.113281 68.054688 L 203.914062 77.269531 C 201.921875 81.640625 195.550781 81.078125 194.34375 76.433594 L 191.8125 66.621094 C 191.054688 64.34375 187.835938 64.34375 187.082031 66.621094 L 184.546875 76.433594 C 183.34375 81.078125 176.964844 81.640625 174.976562 77.269531 L 170.773438 68.054688 C 169.632812 65.949219 166.464844 66.5 166.117188 68.871094 L 165.320312 78.960938 C 164.941406 83.753906 158.765625 85.40625 156.042969 81.445312 L 150.304688 73.101562 C 148.8125 71.21875 145.789062 72.324219 145.851562 74.714844 L 146.820312 84.796875 C 147.277344 89.574219 141.476562 92.28125 138.117188 88.855469 L 131.015625 81.632812 C 129.21875 80.035156 126.4375 81.648438 126.921875 84 L 129.628906 93.757812 C 130.917969 98.382812 125.664062 102.050781 121.765625 99.261719 L 113.519531 93.378906 C 111.472656 92.121094 109.015625 94.195312 109.890625 96.421875 L 114.253906 105.566406 C 116.316406 109.894531 111.789062 114.421875 107.460938 112.359375 L 98.316406 107.996094 C 96.089844 107.117188 94.015625 109.578125 95.273438 111.625 L 101.15625 119.863281 C 103.945312 123.777344 100.28125 129.019531 95.652344 127.730469 L 85.894531 125.023438 C 83.546875 124.542969 81.941406 127.332031 83.527344 129.121094 L 90.75 136.222656 C 94.167969 139.582031 91.460938 145.382812 86.691406 144.925781 L 76.609375 143.953125 C 74.210938 143.894531 73.113281 146.917969 74.984375 148.398438 L 83.332031 154.140625 C 87.285156 156.855469 85.632812 163.035156 80.847656 163.414062 L 70.753906 164.210938 C 68.382812 164.5625 67.824219 167.734375 69.9375 168.871094 L 79.152344 173.070312 C 83.527344 175.0625 82.964844 181.433594 78.3125 182.640625 L 68.507812 185.171875 C 66.230469 185.929688 66.230469 189.148438 68.507812 189.902344 L 78.3125 192.4375 C 82.964844 193.640625 83.527344 200.019531 79.152344 202.007812 L 69.9375 206.207031 C 67.832031 207.351562 68.382812 210.519531 70.753906 210.863281 L 80.847656 211.664062 C 85.640625 212.042969 87.292969 218.21875 83.332031 220.941406 L 74.984375 226.679688 C 73.105469 228.171875 74.210938 231.195312 76.597656 231.132812 L 86.679688 230.160156 C 91.460938 229.703125 94.167969 235.507812 90.734375 238.867188 L 83.511719 245.964844 C 81.921875 247.765625 83.535156 250.542969 85.886719 250.0625 L 95.640625 247.355469 C 100.265625 246.066406 103.9375 251.320312 101.148438 255.21875 L 95.261719 263.464844 C 94.007812 265.507812 96.082031 267.96875 98.308594 267.09375 L 107.449219 262.730469 C 111.78125 260.664062 116.308594 265.195312 114.246094 269.523438 L 109.882812 278.664062 C 109.003906 280.894531 111.464844 282.964844 113.507812 281.710938 L 121.75 275.828125 C 125.664062 273.035156 130.902344 276.703125 129.617188 281.332031 L 126.910156 291.097656 C 126.429688 293.449219 129.21875 295.050781 131.007812 293.46875 L 138.105469 286.242188 C 141.46875 282.824219 147.269531 285.53125 146.808594 290.300781 L 145.839844 300.386719 C 145.777344 302.785156 148.804688 303.878906 150.296875 302.007812 L 156.035156 293.660156 C 158.75 289.707031 164.933594 291.367188 165.3125 296.144531 L 166.109375 306.238281 C 166.457031 308.609375 169.632812 309.167969 170.765625 307.054688 L 174.964844 297.839844 C 176.957031 293.46875 183.328125 294.03125 184.535156 298.679688 L 187.066406 308.484375 C 187.824219 310.761719 191.042969 310.761719 191.796875 308.484375 L 194.332031 298.679688 C 195.535156 294.03125 201.914062 293.46875 203.902344 297.839844 L 208.105469 307.054688 C 209.25 309.160156 212.414062 308.609375 212.761719 306.238281 L 213.558594 296.144531 C 213.9375 291.351562 220.113281 289.699219 222.835938 293.660156 L 228.574219 302.007812 C 230.066406 303.886719 233.089844 302.785156 233.027344 300.394531 L 232.058594 290.3125 C 231.601562 285.53125 237.402344 282.824219 240.761719 286.257812 L 247.859375 293.480469 C 249.660156 295.074219 252.441406 293.457031 251.960938 291.109375 L 249.253906 281.339844 C 247.964844 276.714844 253.214844 273.046875 257.117188 275.835938 L 265.359375 281.71875 C 267.402344 282.976562 269.863281 280.902344 268.988281 278.675781 L 264.625 269.535156 C 262.5625 265.203125 267.089844 260.675781 271.417969 262.738281 L 280.5625 267.101562 C 282.789062 267.980469 284.859375 265.519531 283.605469 263.476562 L 277.722656 255.234375 C 274.933594 251.320312 278.601562 246.078125 283.226562 247.367188 L 292.984375 250.074219 C 295.332031 250.554688 296.9375 247.765625 295.351562 245.976562 L 288.128906 238.875 C 284.710938 235.515625 287.417969 229.714844 292.1875 230.175781 L 302.269531 231.144531 C 304.667969 231.207031 305.765625 228.179688 303.894531 226.6875 L 295.546875 220.949219 C 291.59375 218.234375 293.246094 212.050781 298.03125 211.671875 L 308.125 210.875 C 310.492188 210.527344 311.054688 207.351562 308.941406 206.21875 L 299.726562 202.019531 C 295.351562 200.027344 295.917969 193.652344 300.566406 192.449219 L 310.371094 189.914062 C 312.648438 189.15625 312.648438 185.941406 310.371094 185.1875 L 300.566406 182.652344 C 295.917969 181.441406 295.351562 175.070312 299.726562 173.078125 L 308.941406 168.878906 C 311.046875 167.734375 310.492188 164.570312 308.125 164.222656 L 297.355469 163.375 C 292.789062 163.019531 291.214844 157.121094 294.988281 154.527344 L 303.882812 148.410156 C 305.765625 146.917969 304.660156 143.894531 302.269531 143.953125 L 292.1875 144.925781 C 287.402344 145.382812 284.695312 139.582031 288.128906 136.222656 L 295.351562 129.121094 C 296.949219 127.332031 295.332031 124.542969 292.984375 125.023438 Z M 184.261719 178.636719 C 189.164062 175.804688 195.425781 177.480469 198.257812 182.382812 C 201.085938 187.285156 199.410156 193.550781 194.503906 196.378906 C 189.601562 199.210938 183.34375 197.535156 180.511719 192.632812 C 177.683594 187.730469 179.355469 181.464844 184.261719 178.636719 Z M 122.773438 255.828125 C 116.632812 249.878906 111.199219 243.011719 106.714844 235.238281 C 84.433594 196.644531 92.226562 149.011719 122.753906 119.273438 C 129.046875 113.144531 139.527344 114.796875 143.929688 122.410156 L 174.800781 175.878906 C 178.960938 183.082031 178.960938 191.945312 174.800781 199.136719 L 143.910156 252.636719 C 139.519531 260.238281 129.078125 261.921875 122.773438 255.828125 Z M 281.828125 211.253906 C 275.667969 235.238281 260.242188 256.816406 237.105469 270.179688 C 213.964844 283.535156 187.570312 286.101562 163.71875 279.441406 C 155.183594 277.0625 151.273438 267.144531 155.695312 259.46875 L 184.269531 209.980469 C 189.855469 200.292969 200.195312 194.324219 211.371094 194.324219 L 268.527344 194.324219 C 277.398438 194.324219 284.035156 202.675781 281.828125 211.253906 Z M 281.847656 163.984375 C 283.984375 172.496094 277.300781 180.691406 268.527344 180.691406 L 206.757812 180.691406 C 198.4375 180.691406 190.765625 176.257812 186.609375 169.054688 L 155.738281 115.585938 C 151.347656 107.976562 155.144531 98.066406 163.601562 95.675781 C 204.621094 84.109375 249.773438 101.171875 272.050781 139.777344 C 276.539062 147.550781 279.765625 155.691406 281.847656 163.984375 Z M 281.847656 163.984375 " fill-opacity="1" fill-rule="nonzero"/><path fill="#1d93d2" d="M 344.589844 93.867188 L 329.972656 97.925781 C 323.039062 99.84375 317.542969 91.988281 321.71875 86.132812 L 330.535156 73.785156 C 332.414062 70.722656 329.320312 67.03125 325.980469 68.347656 L 313.152344 74.46875 C 306.367188 77.707031 299.285156 70.617188 302.523438 63.832031 L 308.644531 51.003906 C 309.960938 47.664062 306.277344 44.566406 303.207031 46.449219 L 290.851562 55.265625 C 284.992188 59.441406 277.140625 53.933594 279.058594 47.011719 L 283.117188 32.378906 C 283.828125 28.855469 279.660156 26.445312 276.976562 28.835938 L 266.339844 39.664062 C 261.296875 44.792969 252.613281 40.746094 253.296875 33.585938 L 254.746094 18.476562 C 254.851562 14.882812 250.3125 13.238281 248.074219 16.054688 L 239.464844 28.539062 C 235.390625 34.464844 226.121094 31.980469 225.5625 24.808594 L 224.363281 9.679688 C 223.835938 6.125 219.097656 5.289062 217.378906 8.445312 L 211.085938 22.257812 C 208.105469 28.804688 198.554688 27.96875 196.753906 21.003906 L 192.953125 6.3125 C 191.820312 2.898438 187 2.898438 185.863281 6.3125 L 182.0625 21.003906 C 180.265625 27.96875 170.714844 28.804688 167.730469 22.257812 L 161.4375 8.445312 C 159.730469 5.289062 154.984375 6.125 154.449219 9.679688 L 153.253906 24.808594 C 152.683594 31.992188 143.429688 34.472656 139.351562 28.539062 L 130.761719 16.035156 C 128.523438 13.214844 124 14.871094 124.09375 18.457031 L 125.539062 33.566406 C 126.222656 40.726562 117.542969 44.78125 112.496094 39.640625 L 101.859375 28.828125 C 99.175781 26.445312 95 28.855469 95.71875 32.371094 L 99.777344 47 C 101.699219 53.925781 93.84375 59.433594 87.992188 55.253906 L 75.636719 46.433594 C 72.574219 44.558594 68.886719 47.652344 70.207031 50.996094 L 76.734375 64.691406 C 79.828125 71.191406 73.046875 77.960938 66.558594 74.867188 L 52.859375 68.339844 C 49.515625 67.023438 46.421875 70.707031 48.300781 73.773438 L 57.117188 86.132812 C 61.296875 91.988281 55.789062 99.84375 48.863281 97.925781 L 34.238281 93.867188 C 30.714844 93.152344 28.296875 97.320312 30.691406 100.007812 L 41.507812 110.644531 C 46.636719 115.6875 42.589844 124.371094 35.429688 123.6875 L 20.324219 122.238281 C 16.726562 122.132812 15.082031 126.671875 17.890625 128.898438 L 30.394531 137.484375 C 36.320312 141.5625 33.835938 150.828125 26.664062 151.390625 L 11.535156 152.585938 C 7.984375 153.117188 7.144531 157.859375 10.296875 159.570312 L 24.113281 165.867188 C 30.660156 168.847656 29.824219 178.402344 22.855469 180.195312 L 8.167969 184 C 4.753906 185.132812 4.753906 189.957031 8.167969 191.089844 L 22.855469 194.886719 C 29.824219 196.6875 30.660156 206.234375 24.113281 209.222656 L 10.296875 215.511719 C 7.144531 217.21875 7.984375 221.972656 11.535156 222.5 L 26.664062 223.699219 C 33.835938 224.257812 36.320312 233.527344 30.394531 237.597656 L 17.890625 246.210938 C 15.074219 248.449219 16.726562 252.972656 20.308594 252.882812 L 35.421875 251.429688 C 42.582031 250.746094 46.636719 259.429688 41.5 264.476562 L 30.679688 275.109375 C 28.296875 277.796875 30.714844 281.976562 34.222656 281.25 L 48.839844 277.195312 C 55.78125 275.273438 61.277344 283.128906 57.097656 288.984375 L 48.28125 301.335938 C 46.402344 304.398438 49.5 308.085938 52.835938 306.769531 L 66.535156 300.242188 C 73.03125 297.144531 79.804688 303.929688 76.710938 310.414062 L 70.183594 324.117188 C 68.863281 327.457031 72.550781 330.550781 75.621094 328.671875 L 87.96875 319.855469 C 93.820312 315.675781 101.679688 321.183594 99.757812 328.109375 L 95.703125 342.738281 C 94.976562 346.261719 99.152344 348.671875 101.84375 346.285156 L 112.472656 335.457031 C 117.523438 330.324219 126.207031 334.375 125.519531 341.53125 L 124.070312 356.640625 C 123.96875 360.234375 128.503906 361.882812 130.738281 359.0625 L 139.332031 346.558594 C 143.40625 340.632812 152.675781 343.117188 153.234375 350.289062 L 154.433594 365.417969 C 154.960938 368.972656 159.699219 369.808594 161.417969 366.652344 L 167.710938 352.839844 C 170.691406 346.292969 180.246094 347.128906 182.042969 354.097656 L 185.84375 368.785156 C 186.976562 372.199219 191.796875 372.199219 192.933594 368.785156 L 196.730469 354.097656 C 198.53125 347.128906 208.082031 346.300781 211.066406 352.839844 L 217.355469 366.652344 C 219.074219 369.808594 223.816406 368.972656 224.347656 365.417969 L 225.542969 350.289062 C 226.105469 343.117188 235.367188 340.632812 239.441406 346.558594 L 248.042969 359.0625 C 250.285156 361.882812 254.808594 360.226562 254.71875 356.640625 L 253.265625 341.53125 C 252.582031 334.375 261.265625 330.316406 266.3125 335.457031 L 276.945312 346.285156 C 279.632812 348.664062 283.8125 346.25 283.085938 342.738281 L 279.03125 328.109375 C 277.109375 321.183594 284.964844 315.675781 290.820312 319.855469 L 303.179688 328.671875 C 306.242188 330.550781 309.933594 327.457031 308.613281 324.117188 L 302.085938 310.414062 C 298.988281 303.917969 305.773438 297.144531 312.261719 300.242188 L 325.960938 306.769531 C 329.296875 308.085938 332.398438 304.398438 330.515625 301.335938 L 321.699219 288.972656 C 317.519531 283.121094 323.03125 275.265625 329.953125 277.1875 L 344.582031 281.242188 C 348.105469 281.957031 350.515625 277.789062 348.128906 275.101562 L 337.300781 264.46875 C 332.167969 259.417969 336.226562 250.738281 343.375 251.421875 L 358.488281 252.871094 C 362.078125 252.972656 363.726562 248.441406 360.90625 246.203125 L 348.402344 237.597656 C 342.476562 233.527344 344.960938 224.257812 352.132812 223.699219 L 367.261719 222.5 C 370.816406 221.972656 371.652344 217.230469 368.496094 215.511719 L 354.683594 209.222656 C 348.136719 206.234375 348.972656 196.6875 355.945312 194.886719 L 370.628906 191.089844 C 374.042969 189.957031 374.042969 185.132812 370.628906 184 L 355.945312 180.195312 C 348.972656 178.402344 348.136719 168.847656 354.683594 165.867188 L 368.496094 159.570312 C 371.652344 157.867188 370.816406 153.117188 367.261719 152.585938 L 351.132812 151.316406 C 344.292969 150.777344 341.925781 141.949219 347.578125 138.070312 L 360.914062 128.90625 C 363.738281 126.671875 362.078125 122.144531 358.496094 122.238281 L 343.386719 123.6875 C 336.226562 124.371094 332.167969 115.6875 337.308594 110.644531 L 348.136719 100.007812 C 350.515625 97.320312 348.117188 93.140625 344.589844 93.867188 Z M 184.261719 178.636719 C 189.144531 175.820312 195.394531 177.488281 198.214844 182.375 C 201.03125 187.257812 199.355469 193.507812 194.476562 196.328125 C 189.59375 199.152344 183.34375 197.476562 180.519531 192.589844 C 177.699219 187.707031 179.375 181.457031 184.261719 178.636719 Z M 89.570312 289.832031 C 80.378906 280.925781 72.226562 270.636719 65.503906 258.992188 C 32.121094 201.160156 43.796875 129.792969 89.53125 85.234375 C 98.972656 76.039062 114.675781 78.53125 121.253906 89.945312 L 167.507812 170.054688 C 173.738281 180.839844 173.738281 194.125 167.507812 204.910156 L 121.230469 285.070312 C 114.660156 296.453125 99.011719 298.976562 89.570312 289.832031 Z M 327.878906 223.0625 C 318.65625 258.992188 295.546875 291.332031 260.875 311.347656 C 226.203125 331.355469 186.652344 335.207031 150.925781 325.230469 C 138.148438 321.664062 132.28125 306.800781 138.914062 295.304688 L 181.726562 221.15625 C 190.105469 206.648438 205.578125 197.707031 222.332031 197.707031 L 307.96875 197.707031 C 321.242188 197.699219 331.179688 210.203125 327.878906 223.0625 Z M 327.902344 152.238281 C 331.097656 164.976562 321.085938 177.265625 307.949219 177.265625 L 215.398438 177.265625 C 202.945312 177.265625 191.433594 170.628906 185.210938 159.839844 L 138.957031 79.726562 C 132.363281 68.320312 138.066406 53.472656 150.742188 49.910156 C 212.199219 32.574219 279.835938 58.144531 313.234375 115.984375 C 319.945312 127.621094 324.78125 139.816406 327.902344 152.238281 Z M 327.902344 152.238281 " fill-opacity="1" fill-rule="nonzero"/></svg>