<svg xmlns="http://www.w3.org/2000/svg" xmlns:xlink="http://www.w3.org/1999/xlink" width="500" zoomAndPan="magnify" viewBox="0 0 375 374.999991" height="500" preserveAspectRatio="xMidYMid meet" version="1.0"><path fill="#003a87" d="M 293.015625 125.039062 L 283.253906 127.746094 C 278.625 129.035156 274.960938 123.785156 277.75 119.878906 L 283.632812 111.636719 C 284.886719 109.589844 282.816406 107.128906 280.589844 108.007812 L 272.027344 112.097656 C 267.5 114.25 262.769531 109.53125 264.9375 105.003906 L 269.023438 96.445312 C 269.902344 94.214844 267.441406 92.144531 265.394531 93.398438 L 257.152344 99.28125 C 253.238281 102.074219 248 98.40625 249.285156 93.777344 L 251.992188 84.023438 C 252.472656 81.671875 249.683594 80.070312 247.898438 81.648438 L 240.796875 88.875 C 237.433594 92.292969 231.632812 89.585938 232.09375 84.816406 L 233.0625 74.734375 C 233.125 72.332031 230.097656 71.238281 228.605469 73.109375 L 222.867188 81.457031 C 220.148438 85.410156 213.964844 83.753906 213.589844 78.972656 L 212.792969 68.878906 C 212.445312 66.511719 209.269531 65.949219 208.136719 68.0625 L 203.9375 77.28125 C 201.941406 81.648438 195.570312 81.085938 194.363281 76.441406 L 191.832031 66.632812 C 191.074219 64.351562 187.855469 64.351562 187.101562 66.632812 L 184.566406 76.441406 C 183.359375 81.085938 176.984375 81.648438 174.996094 77.28125 L 170.792969 68.0625 C 169.648438 65.957031 166.480469 66.511719 166.132812 68.878906 L 165.339844 78.972656 C 164.960938 83.765625 158.78125 85.417969 156.0625 81.457031 L 150.320312 73.109375 C 148.828125 71.230469 145.804688 72.332031 145.867188 74.722656 L 146.835938 84.808594 C 147.292969 89.585938 141.492188 92.292969 138.132812 88.863281 L 131.03125 81.640625 C 129.234375 80.046875 126.453125 81.660156 126.933594 84.007812 L 129.640625 93.769531 C 130.929688 98.394531 125.679688 102.0625 121.777344 99.273438 L 113.53125 93.390625 C 111.484375 92.132812 109.027344 94.207031 109.902344 96.433594 L 114.265625 105.578125 C 116.328125 109.910156 111.804688 114.433594 107.472656 112.371094 L 98.328125 108.007812 C 96.101562 107.128906 94.027344 109.589844 95.285156 111.636719 L 101.167969 119.878906 C 103.957031 123.792969 100.292969 129.035156 95.664062 127.746094 L 85.902344 125.039062 C 83.558594 124.558594 81.949219 127.347656 83.535156 129.132812 L 90.761719 136.238281 C 94.179688 139.597656 91.472656 145.398438 86.703125 144.941406 L 76.617188 143.96875 C 74.21875 143.910156 73.125 146.933594 74.992188 148.417969 L 83.34375 154.15625 C 87.296875 156.875 85.640625 163.050781 80.859375 163.429688 L 70.765625 164.230469 C 68.394531 164.578125 67.835938 167.753906 69.949219 168.886719 L 79.160156 173.085938 C 83.535156 175.082031 82.972656 181.453125 78.324219 182.660156 L 68.515625 185.191406 C 66.238281 185.949219 66.238281 189.167969 68.515625 189.921875 L 78.324219 192.457031 C 82.972656 193.660156 83.535156 200.039062 79.160156 202.027344 L 69.949219 206.226562 C 67.84375 207.375 68.394531 210.542969 70.765625 210.886719 L 80.859375 211.683594 C 85.652344 212.0625 87.304688 218.242188 83.34375 220.960938 L 74.992188 226.703125 C 73.117188 228.195312 74.21875 231.21875 76.609375 231.15625 L 86.691406 230.183594 C 91.472656 229.722656 94.179688 235.53125 90.746094 238.890625 L 83.523438 245.988281 C 81.933594 247.789062 83.546875 250.566406 85.894531 250.089844 L 95.648438 247.382812 C 100.277344 246.09375 103.949219 251.34375 101.160156 255.246094 L 95.273438 263.492188 C 94.015625 265.53125 96.09375 267.996094 98.320312 267.117188 L 107.464844 262.757812 C 111.796875 260.691406 116.320312 265.21875 114.257812 269.550781 L 109.894531 278.691406 C 109.015625 280.921875 111.476562 282.992188 113.523438 281.738281 L 121.765625 275.855469 C 125.679688 273.0625 130.917969 276.730469 129.632812 281.359375 L 126.925781 291.128906 C 126.445312 293.476562 129.234375 295.082031 131.019531 293.496094 L 138.121094 286.273438 C 141.484375 282.851562 147.285156 285.558594 146.824219 290.328125 L 145.855469 300.414062 C 145.792969 302.816406 148.820312 303.90625 150.3125 302.039062 L 156.050781 293.6875 C 158.769531 289.734375 164.953125 291.394531 165.328125 296.171875 L 166.125 306.265625 C 166.472656 308.640625 169.648438 309.199219 170.785156 307.082031 L 174.980469 297.871094 C 176.976562 293.496094 183.347656 294.058594 184.554688 298.707031 L 187.085938 308.515625 C 187.84375 310.792969 191.0625 310.792969 191.816406 308.515625 L 194.355469 298.707031 C 195.558594 294.058594 201.933594 293.496094 203.921875 297.871094 L 208.125 307.082031 C 209.269531 309.1875 212.4375 308.640625 212.785156 306.265625 L 213.578125 296.171875 C 213.957031 291.382812 220.136719 289.726562 222.855469 293.6875 L 228.597656 302.039062 C 230.089844 303.917969 233.113281 302.816406 233.050781 300.421875 L 232.082031 290.339844 C 231.625 285.558594 237.425781 282.851562 240.785156 286.285156 L 247.882812 293.507812 C 249.683594 295.101562 252.464844 293.488281 251.984375 291.136719 L 249.277344 281.367188 C 247.988281 276.742188 253.238281 273.074219 257.140625 275.863281 L 265.386719 281.746094 C 267.429688 283.003906 269.890625 280.929688 269.015625 278.703125 L 264.652344 269.558594 C 262.589844 265.226562 267.113281 260.703125 271.445312 262.765625 L 280.589844 267.128906 C 282.816406 268.007812 284.886719 265.546875 283.632812 263.5 L 277.75 255.257812 C 274.960938 251.34375 278.625 246.101562 283.253906 247.390625 L 293.015625 250.097656 C 295.359375 250.578125 296.96875 247.789062 295.382812 246.003906 L 288.15625 238.898438 C 284.738281 235.539062 287.445312 229.738281 292.214844 230.195312 L 302.300781 231.167969 C 304.699219 231.226562 305.792969 228.203125 303.925781 226.710938 L 295.574219 220.972656 C 291.621094 218.253906 293.277344 212.070312 298.058594 211.691406 L 308.152344 210.898438 C 310.519531 210.550781 311.082031 207.375 308.96875 206.238281 L 299.757812 202.042969 C 295.382812 200.046875 295.945312 193.671875 300.59375 192.46875 L 310.402344 189.933594 C 312.679688 189.175781 312.679688 185.960938 310.402344 185.203125 L 300.59375 182.667969 C 295.945312 181.460938 295.382812 175.089844 299.757812 173.09375 L 308.96875 168.898438 C 311.074219 167.753906 310.519531 164.585938 308.152344 164.238281 L 297.382812 163.390625 C 292.816406 163.035156 291.242188 157.140625 295.015625 154.542969 L 303.910156 148.425781 C 305.792969 146.933594 304.691406 143.910156 302.300781 143.96875 L 292.214844 144.941406 C 287.433594 145.398438 284.722656 139.597656 288.15625 136.238281 L 295.382812 129.132812 C 296.976562 127.347656 295.359375 124.558594 293.015625 125.039062 Z M 184.28125 178.65625 C 189.183594 175.824219 195.445312 177.5 198.277344 182.402344 C 201.105469 187.304688 199.429688 193.570312 194.527344 196.398438 C 189.621094 199.230469 183.359375 197.554688 180.53125 192.652344 C 177.703125 187.75 179.375 181.484375 184.28125 178.65625 Z M 122.789062 255.851562 C 116.648438 249.902344 111.210938 243.035156 106.730469 235.261719 C 84.441406 196.664062 92.238281 149.027344 122.765625 119.285156 C 129.0625 113.15625 139.542969 114.8125 143.945312 122.421875 L 174.820312 175.898438 C 178.976562 183.097656 178.976562 191.964844 174.820312 199.15625 L 143.925781 252.664062 C 139.535156 260.265625 129.089844 261.949219 122.789062 255.851562 Z M 281.855469 211.277344 C 275.695312 235.261719 260.269531 256.839844 237.128906 270.203125 C 213.988281 283.5625 187.589844 286.128906 163.734375 279.46875 C 155.203125 277.089844 151.289062 267.171875 155.710938 259.496094 L 184.289062 210 C 189.875 200.3125 200.214844 194.34375 211.390625 194.34375 L 268.554688 194.34375 C 277.421875 194.34375 284.0625 202.695312 281.855469 211.277344 Z M 281.875 164.003906 C 284.011719 172.515625 277.328125 180.710938 268.554688 180.710938 L 206.777344 180.710938 C 198.457031 180.710938 190.785156 176.273438 186.628906 169.074219 L 155.753906 115.597656 C 151.363281 107.988281 155.164062 98.078125 163.621094 95.6875 C 204.640625 84.121094 249.796875 101.183594 272.078125 139.792969 C 276.5625 147.566406 279.792969 155.707031 281.875 164.003906 Z M 281.875 164.003906 " fill-opacity="1" fill-rule="nonzero"/><path fill="#c8daea" d="M 344.625 93.878906 L 330.003906 97.9375 C 323.070312 99.855469 317.574219 91.996094 321.75 86.144531 L 330.566406 73.792969 C 332.445312 70.730469 329.351562 67.039062 326.011719 68.359375 L 313.179688 74.476562 C 306.394531 77.71875 299.3125 70.628906 302.554688 63.84375 L 308.671875 51.011719 C 309.992188 47.671875 306.304688 44.574219 303.238281 46.457031 L 290.878906 55.273438 C 285.019531 59.449219 277.164062 53.941406 279.085938 47.019531 L 283.144531 32.386719 C 283.855469 28.863281 279.6875 26.453125 277.003906 28.839844 L 266.367188 39.671875 C 261.320312 44.800781 252.636719 40.753906 253.320312 33.59375 L 254.773438 18.480469 C 254.875 14.886719 250.339844 13.242188 248.097656 16.0625 L 239.488281 28.542969 C 235.414062 34.46875 226.144531 31.988281 225.585938 24.816406 L 224.386719 9.683594 C 223.859375 6.128906 219.117188 5.292969 217.398438 8.449219 L 211.109375 22.261719 C 208.125 28.8125 198.574219 27.972656 196.773438 21.007812 L 192.972656 6.316406 C 191.839844 2.902344 187.019531 2.902344 185.882812 6.316406 L 182.082031 21.007812 C 180.285156 27.972656 170.730469 28.8125 167.75 22.261719 L 161.453125 8.449219 C 159.746094 5.292969 155 6.128906 154.464844 9.683594 L 153.273438 24.816406 C 152.699219 32 143.445312 34.480469 139.367188 28.542969 L 130.777344 16.039062 C 128.535156 13.21875 124.011719 14.875 124.105469 18.464844 L 125.554688 33.574219 C 126.238281 40.730469 117.558594 44.789062 112.507812 39.648438 L 101.871094 28.832031 C 99.1875 26.453125 95.011719 28.863281 95.730469 32.378906 L 99.789062 47.003906 C 101.710938 53.933594 93.855469 59.441406 88 55.261719 L 75.648438 46.441406 C 72.582031 44.566406 68.894531 47.660156 70.214844 51.003906 L 76.742188 64.703125 C 79.835938 71.199219 73.054688 77.972656 66.566406 74.878906 L 52.867188 68.351562 C 49.523438 67.03125 46.429688 70.71875 48.308594 73.78125 L 57.125 86.144531 C 61.308594 91.996094 55.796875 99.855469 48.871094 97.9375 L 34.242188 93.878906 C 30.71875 93.164062 28.304688 97.332031 30.699219 100.019531 L 41.511719 110.65625 C 46.644531 115.703125 42.597656 124.386719 35.4375 123.703125 L 20.328125 122.25 C 16.730469 122.148438 15.085938 126.683594 17.894531 128.910156 L 30.402344 137.5 C 36.328125 141.578125 33.84375 150.84375 26.671875 151.40625 L 11.539062 152.601562 C 7.988281 153.132812 7.148438 157.875 10.304688 159.589844 L 24.117188 165.882812 C 30.667969 168.867188 29.828125 178.417969 22.859375 180.214844 L 8.171875 184.019531 C 4.757812 185.152344 4.757812 189.976562 8.171875 191.109375 L 22.859375 194.90625 C 29.828125 196.707031 30.667969 206.257812 24.117188 209.242188 L 10.304688 215.535156 C 7.148438 217.242188 7.988281 221.992188 11.539062 222.523438 L 26.671875 223.722656 C 33.84375 224.28125 36.328125 233.546875 30.402344 237.621094 L 17.894531 246.234375 C 15.078125 248.472656 16.730469 253 20.316406 252.90625 L 35.429688 251.457031 C 42.589844 250.773438 46.644531 259.457031 41.503906 264.5 L 30.683594 275.136719 C 28.304688 277.824219 30.71875 282.003906 34.230469 281.277344 L 48.847656 277.222656 C 55.789062 275.300781 61.285156 283.15625 57.105469 289.011719 L 48.289062 301.363281 C 46.410156 304.425781 49.507812 308.113281 52.84375 306.800781 L 66.546875 300.273438 C 73.042969 297.171875 79.816406 303.960938 76.722656 310.445312 L 70.195312 324.148438 C 68.875 327.488281 72.5625 330.582031 75.628906 328.703125 L 87.980469 319.882812 C 93.832031 315.707031 101.691406 321.210938 99.769531 328.140625 L 95.714844 342.773438 C 94.988281 346.296875 99.164062 348.707031 101.855469 346.316406 L 112.488281 335.488281 C 117.535156 330.355469 126.222656 334.40625 125.535156 341.5625 L 124.085938 356.671875 C 123.980469 360.269531 128.519531 361.914062 130.753906 359.097656 L 139.347656 346.59375 C 143.421875 340.667969 152.691406 343.148438 153.25 350.320312 L 154.449219 365.453125 C 154.976562 369.007812 159.71875 369.84375 161.4375 366.6875 L 167.726562 352.875 C 170.710938 346.324219 180.261719 347.164062 182.0625 354.128906 L 185.863281 368.820312 C 186.996094 372.234375 191.816406 372.234375 192.953125 368.820312 L 196.75 354.128906 C 198.550781 347.164062 208.105469 346.335938 211.085938 352.875 L 217.378906 366.6875 C 219.097656 369.84375 223.835938 369.007812 224.371094 365.453125 L 225.566406 350.320312 C 226.128906 343.148438 235.390625 340.667969 239.464844 346.59375 L 248.070312 359.097656 C 250.308594 361.914062 254.832031 360.261719 254.742188 356.671875 L 253.289062 341.5625 C 252.605469 334.40625 261.292969 330.347656 266.335938 335.488281 L 276.972656 346.316406 C 279.65625 348.699219 283.839844 346.28125 283.113281 342.773438 L 279.054688 328.140625 C 277.136719 321.210938 284.992188 315.707031 290.847656 319.882812 L 303.207031 328.703125 C 306.269531 330.582031 309.960938 327.488281 308.644531 324.148438 L 302.117188 310.445312 C 299.015625 303.945312 305.800781 297.171875 312.292969 300.273438 L 325.992188 306.800781 C 329.328125 308.113281 332.429688 304.425781 330.546875 301.363281 L 321.726562 289 C 317.550781 283.148438 323.058594 275.292969 329.984375 277.214844 L 344.617188 281.269531 C 348.140625 281.984375 350.550781 277.816406 348.160156 275.128906 L 337.332031 264.492188 C 332.199219 259.445312 336.257812 250.761719 343.40625 251.445312 L 358.519531 252.894531 C 362.113281 253 363.757812 248.464844 360.941406 246.226562 L 348.433594 237.621094 C 342.507812 233.546875 344.992188 224.28125 352.164062 223.722656 L 367.296875 222.523438 C 370.851562 221.992188 371.6875 217.253906 368.53125 215.535156 L 354.71875 209.242188 C 348.167969 206.257812 349.007812 196.707031 355.976562 194.90625 L 370.664062 191.109375 C 374.078125 189.976562 374.078125 185.152344 370.664062 184.019531 L 355.976562 180.214844 C 349.007812 178.417969 348.167969 168.867188 354.71875 165.882812 L 368.53125 159.589844 C 371.6875 157.882812 370.851562 153.132812 367.296875 152.601562 L 351.164062 151.332031 C 344.328125 150.792969 341.960938 141.964844 347.609375 138.085938 L 360.949219 128.917969 C 363.773438 126.683594 362.113281 122.160156 358.53125 122.25 L 343.421875 123.703125 C 336.257812 124.386719 332.199219 115.703125 337.339844 110.65625 L 348.167969 100.019531 C 350.550781 97.332031 348.152344 93.152344 344.625 93.878906 Z M 184.28125 178.65625 C 189.164062 175.835938 195.414062 177.507812 198.234375 182.394531 C 201.054688 187.277344 199.378906 193.527344 194.496094 196.347656 C 189.613281 199.171875 183.359375 197.496094 180.539062 192.609375 C 177.71875 187.726562 179.394531 181.476562 184.28125 178.65625 Z M 89.582031 289.859375 C 80.390625 280.953125 72.234375 270.664062 65.515625 259.019531 C 32.128906 201.183594 43.804688 129.808594 89.542969 85.246094 C 98.984375 76.050781 114.6875 78.542969 121.265625 89.957031 L 167.527344 170.074219 C 173.757812 180.859375 173.757812 194.144531 167.527344 204.929688 L 121.246094 285.097656 C 114.675781 296.480469 99.023438 299.003906 89.582031 289.859375 Z M 327.910156 223.085938 C 318.6875 259.019531 295.574219 291.359375 260.902344 311.375 C 226.226562 331.386719 186.671875 335.238281 150.941406 325.261719 C 138.164062 321.695312 132.296875 306.828125 138.929688 295.335938 L 181.746094 221.175781 C 190.125 206.667969 205.597656 197.726562 222.355469 197.726562 L 308 197.726562 C 321.273438 197.71875 331.210938 210.222656 327.910156 223.085938 Z M 327.933594 152.253906 C 331.128906 164.996094 321.117188 177.285156 307.976562 177.285156 L 215.417969 177.285156 C 202.964844 177.285156 191.453125 170.644531 185.230469 159.855469 L 138.972656 79.738281 C 132.378906 68.328125 138.082031 53.480469 150.757812 49.917969 C 212.222656 32.578125 279.863281 58.152344 313.261719 115.996094 C 319.976562 127.632812 324.8125 139.832031 327.933594 152.253906 Z M 327.933594 152.253906 " fill-opacity="1" fill-rule="nonzero"/></svg>