<svg xmlns="http://www.w3.org/2000/svg" xmlns:xlink="http://www.w3.org/1999/xlink" width="500" zoomAndPan="magnify" viewBox="0 0 375 374.999991" height="500" preserveAspectRatio="xMidYMid meet" version="1.0"><defs><clipPath id="19d1cae20e"><path d="M 2.011719 2.011719 L 373 2.011719 L 373 373 L 2.011719 373 Z M 2.011719 2.011719 " clip-rule="nonzero"/></clipPath><clipPath id="19968fb5ec"><path d="M 372.980469 187.496094 C 372.980469 190.535156 372.90625 193.566406 372.757812 196.597656 C 372.609375 199.632812 372.386719 202.65625 372.089844 205.679688 C 371.792969 208.699219 371.417969 211.710938 370.972656 214.714844 C 370.527344 217.714844 370.011719 220.707031 369.417969 223.683594 C 368.824219 226.660156 368.160156 229.621094 367.421875 232.566406 C 366.6875 235.511719 365.875 238.4375 364.996094 241.339844 C 364.113281 244.246094 363.160156 247.128906 362.140625 249.984375 C 361.117188 252.84375 360.023438 255.675781 358.863281 258.480469 C 357.703125 261.285156 356.472656 264.058594 355.171875 266.800781 C 353.875 269.546875 352.511719 272.257812 351.082031 274.933594 C 349.648438 277.613281 348.152344 280.253906 346.59375 282.855469 C 345.03125 285.460938 343.410156 288.023438 341.722656 290.546875 C 340.035156 293.070312 338.289062 295.550781 336.480469 297.992188 C 334.671875 300.429688 332.804688 302.820312 330.878906 305.167969 C 328.953125 307.515625 326.972656 309.8125 324.933594 312.0625 C 322.894531 314.3125 320.800781 316.507812 318.65625 318.65625 C 316.507812 320.800781 314.3125 322.894531 312.0625 324.933594 C 309.8125 326.972656 307.515625 328.953125 305.167969 330.878906 C 302.820312 332.804688 300.429688 334.671875 297.992188 336.480469 C 295.550781 338.289062 293.070312 340.035156 290.546875 341.722656 C 288.023438 343.410156 285.460938 345.03125 282.855469 346.59375 C 280.253906 348.152344 277.613281 349.648438 274.933594 351.082031 C 272.257812 352.511719 269.546875 353.875 266.800781 355.171875 C 264.058594 356.472656 261.285156 357.703125 258.480469 358.863281 C 255.675781 360.023438 252.84375 361.117188 249.984375 362.140625 C 247.128906 363.160156 244.246094 364.113281 241.339844 364.996094 C 238.4375 365.875 235.511719 366.6875 232.566406 367.421875 C 229.621094 368.160156 226.660156 368.824219 223.683594 369.417969 C 220.707031 370.011719 217.714844 370.527344 214.714844 370.972656 C 211.710938 371.417969 208.699219 371.792969 205.679688 372.089844 C 202.65625 372.386719 199.632812 372.609375 196.597656 372.757812 C 193.566406 372.90625 190.535156 372.980469 187.496094 372.980469 C 184.460938 372.980469 181.429688 372.90625 178.398438 372.757812 C 175.363281 372.609375 172.339844 372.386719 169.316406 372.089844 C 166.296875 371.792969 163.285156 371.417969 160.28125 370.972656 C 157.277344 370.527344 154.289062 370.011719 151.3125 369.417969 C 148.335938 368.824219 145.375 368.160156 142.429688 367.421875 C 139.484375 366.6875 136.558594 365.875 133.65625 364.996094 C 130.75 364.113281 127.867188 363.160156 125.011719 362.140625 C 122.152344 361.117188 119.320312 360.023438 116.515625 358.863281 C 113.710938 357.703125 110.9375 356.472656 108.191406 355.171875 C 105.449219 353.875 102.738281 352.511719 100.0625 351.082031 C 97.382812 349.648438 94.742188 348.152344 92.140625 346.59375 C 89.535156 345.03125 86.972656 343.410156 84.449219 341.722656 C 81.925781 340.035156 79.441406 338.289062 77.003906 336.480469 C 74.566406 334.671875 72.175781 332.804688 69.828125 330.878906 C 67.480469 328.953125 65.183594 326.972656 62.933594 324.933594 C 60.683594 322.894531 58.488281 320.800781 56.339844 318.65625 C 54.195312 316.507812 52.101562 314.3125 50.0625 312.0625 C 48.023438 309.8125 46.042969 307.515625 44.117188 305.167969 C 42.191406 302.820312 40.324219 300.429688 38.515625 297.992188 C 36.707031 295.550781 34.960938 293.070312 33.273438 290.546875 C 31.585938 288.023438 29.964844 285.460938 28.402344 282.855469 C 26.84375 280.253906 25.347656 277.613281 23.914062 274.933594 C 22.484375 272.257812 21.121094 269.546875 19.820312 266.800781 C 18.523438 264.058594 17.292969 261.285156 16.132812 258.480469 C 14.972656 255.675781 13.878906 252.84375 12.855469 249.984375 C 11.832031 247.128906 10.882812 244.246094 10 241.339844 C 9.117188 238.4375 8.308594 235.511719 7.570312 232.566406 C 6.835938 229.621094 6.167969 226.660156 5.578125 223.683594 C 4.984375 220.707031 4.464844 217.714844 4.019531 214.714844 C 3.574219 211.710938 3.203125 208.699219 2.90625 205.679688 C 2.609375 202.65625 2.386719 199.632812 2.238281 196.597656 C 2.089844 193.566406 2.011719 190.535156 2.011719 187.496094 C 2.011719 184.460938 2.089844 181.429688 2.238281 178.394531 C 2.386719 175.363281 2.609375 172.339844 2.90625 169.316406 C 3.203125 166.296875 3.574219 163.285156 4.019531 160.28125 C 4.464844 157.277344 4.984375 154.289062 5.578125 151.3125 C 6.167969 148.335938 6.835938 145.375 7.570312 142.429688 C 8.308594 139.484375 9.117188 136.558594 10 133.65625 C 10.882812 130.75 11.832031 127.867188 12.855469 125.011719 C 13.878906 122.152344 14.972656 119.320312 16.132812 116.515625 C 17.292969 113.710938 18.523438 110.9375 19.820312 108.191406 C 21.121094 105.449219 22.484375 102.738281 23.914062 100.0625 C 25.347656 97.382812 26.84375 94.742188 28.402344 92.140625 C 29.964844 89.535156 31.585938 86.972656 33.273438 84.449219 C 34.960938 81.925781 36.707031 79.441406 38.515625 77.003906 C 40.324219 74.566406 42.191406 72.175781 44.117188 69.828125 C 46.042969 67.480469 48.023438 65.183594 50.0625 62.933594 C 52.101562 60.683594 54.195312 58.488281 56.339844 56.339844 C 58.488281 54.195312 60.683594 52.101562 62.933594 50.0625 C 65.183594 48.023438 67.480469 46.042969 69.828125 44.117188 C 72.175781 42.191406 74.566406 40.324219 77.003906 38.515625 C 79.441406 36.707031 81.925781 34.960938 84.449219 33.273438 C 86.972656 31.585938 89.535156 29.964844 92.140625 28.402344 C 94.742188 26.84375 97.382812 25.347656 100.0625 23.914062 C 102.738281 22.484375 105.449219 21.121094 108.191406 19.820312 C 110.9375 18.523438 113.710938 17.292969 116.515625 16.132812 C 119.320312 14.972656 122.152344 13.878906 125.011719 12.855469 C 127.867188 11.832031 130.75 10.882812 133.65625 10 C 136.558594 9.117188 139.484375 8.308594 142.429688 7.570312 C 145.375 6.835938 148.335938 6.167969 151.3125 5.578125 C 154.289062 4.984375 157.277344 4.464844 160.28125 4.019531 C 163.285156 3.574219 166.296875 3.203125 169.316406 2.90625 C 172.339844 2.609375 175.363281 2.386719 178.398438 2.238281 C 181.429688 2.089844 184.460938 2.011719 187.496094 2.011719 C 190.535156 2.011719 193.566406 2.089844 196.597656 2.238281 C 199.632812 2.386719 202.65625 2.609375 205.679688 2.90625 C 208.699219 3.203125 211.710938 3.574219 214.714844 4.019531 C 217.714844 4.464844 220.707031 4.984375 223.683594 5.578125 C 226.660156 6.167969 229.621094 6.835938 232.566406 7.570312 C 235.511719 8.308594 238.4375 9.117188 241.339844 10 C 244.246094 10.882812 247.128906 11.832031 249.984375 12.855469 C 252.84375 13.878906 255.675781 14.972656 258.480469 16.132812 C 261.285156 17.292969 264.058594 18.523438 266.800781 19.820312 C 269.546875 21.121094 272.257812 22.484375 274.933594 23.914062 C 277.613281 25.347656 280.253906 26.84375 282.855469 28.402344 C 285.460938 29.964844 288.023438 31.585938 290.546875 33.273438 C 293.070312 34.960938 295.550781 36.707031 297.992188 38.515625 C 300.429688 40.324219 302.820312 42.191406 305.167969 44.117188 C 307.515625 46.042969 309.8125 48.023438 312.0625 50.0625 C 314.3125 52.101562 316.507812 54.195312 318.65625 56.339844 C 320.800781 58.488281 322.894531 60.683594 324.933594 62.933594 C 326.972656 65.183594 328.953125 67.480469 330.878906 69.828125 C 332.804688 72.175781 334.671875 74.566406 336.480469 77.003906 C 338.289062 79.441406 340.035156 81.925781 341.722656 84.449219 C 343.410156 86.972656 345.03125 89.535156 346.59375 92.140625 C 348.152344 94.742188 349.648438 97.382812 351.082031 100.0625 C 352.511719 102.738281 353.875 105.449219 355.171875 108.191406 C 356.472656 110.9375 357.703125 113.710938 358.863281 116.515625 C 360.023438 119.320312 361.117188 122.152344 362.140625 125.011719 C 363.160156 127.867188 364.113281 130.75 364.996094 133.65625 C 365.875 136.558594 366.6875 139.484375 367.421875 142.429688 C 368.160156 145.375 368.824219 148.335938 369.417969 151.3125 C 370.011719 154.289062 370.527344 157.277344 370.972656 160.28125 C 371.417969 163.285156 371.792969 166.296875 372.089844 169.316406 C 372.386719 172.339844 372.609375 175.363281 372.757812 178.394531 C 372.90625 181.429688 372.980469 184.460938 372.980469 187.496094 Z M 372.980469 187.496094 " clip-rule="nonzero"/></clipPath></defs><g clip-path="url(#19d1cae20e)"><g clip-path="url(#19968fb5ec)"><path fill="#1e1e1e" d="M 2.011719 2.011719 L 2.011719 372.980469 L 372.980469 372.980469 L 372.980469 2.011719 Z M 2.011719 2.011719 " fill-opacity="1" fill-rule="nonzero"/></g></g><path fill="#00c3ec" d="M 127.570312 201.058594 L 149.574219 261.964844 C 149.574219 261.964844 152.328125 267.664062 155.273438 267.664062 C 158.21875 267.664062 202.039062 222.078125 202.039062 222.078125 L 250.765625 127.960938 L 128.355469 185.332031 Z M 127.570312 201.058594 " fill-opacity="1" fill-rule="nonzero"/><path fill="#0185df" d="M 156.746094 216.675781 L 152.523438 261.574219 C 152.523438 261.574219 150.753906 275.332031 164.507812 261.574219 C 178.261719 247.816406 191.425781 237.210938 191.425781 237.210938 " fill-opacity="1" fill-rule="nonzero"/><path fill="#1d93d2" d="M 127.964844 203.230469 L 82.699219 188.480469 C 82.699219 188.480469 77.289062 186.285156 79.03125 181.308594 C 79.390625 180.28125 80.113281 179.410156 82.277344 177.910156 C 92.308594 170.917969 267.925781 107.796875 267.925781 107.796875 C 267.925781 107.796875 272.882812 106.125 275.808594 107.234375 C 276.542969 107.464844 277.171875 107.863281 277.695312 108.429688 C 278.214844 108.996094 278.558594 109.660156 278.722656 110.410156 C 279.039062 111.726562 279.171875 113.058594 279.113281 114.40625 C 279.101562 115.570312 278.960938 116.648438 278.851562 118.335938 C 277.785156 135.59375 245.777344 264.394531 245.777344 264.394531 C 245.777344 264.394531 243.859375 271.933594 237 272.191406 C 235.296875 272.246094 233.648438 271.964844 232.058594 271.351562 C 230.46875 270.734375 229.0625 269.835938 227.839844 268.648438 C 214.375 257.066406 167.839844 225.789062 157.554688 218.910156 C 157.0625 218.574219 156.78125 218.113281 156.710938 217.519531 C 156.566406 216.796875 157.355469 215.898438 157.355469 215.898438 C 157.355469 215.898438 238.390625 143.867188 240.546875 136.304688 C 240.714844 135.71875 240.082031 135.429688 239.234375 135.6875 C 233.851562 137.667969 140.550781 196.589844 130.253906 203.089844 C 129.503906 203.316406 128.738281 203.363281 127.964844 203.230469 Z M 127.964844 203.230469 " fill-opacity="1" fill-rule="nonzero"/></svg>