<svg xmlns="http://www.w3.org/2000/svg" xmlns:xlink="http://www.w3.org/1999/xlink" width="500" zoomAndPan="magnify" viewBox="0 0 375 374.999991" height="500" preserveAspectRatio="xMidYMid meet" version="1.0"><defs><clipPath id="044b300b4b"><path d="M 2.011719 2.011719 L 373.261719 2.011719 L 373.261719 373.261719 L 2.011719 373.261719 Z M 2.011719 2.011719 " clip-rule="nonzero"/></clipPath><clipPath id="e0f294db5d"><path d="M 373.261719 187.636719 C 373.261719 190.675781 373.1875 193.710938 373.039062 196.746094 C 372.890625 199.78125 372.667969 202.808594 372.371094 205.832031 C 372.070312 208.855469 371.699219 211.871094 371.253906 214.875 C 370.808594 217.878906 370.289062 220.871094 369.695312 223.851562 C 369.105469 226.832031 368.4375 229.792969 367.699219 232.742188 C 366.960938 235.6875 366.152344 238.617188 365.269531 241.523438 C 364.386719 244.429688 363.4375 247.3125 362.414062 250.171875 C 361.390625 253.035156 360.296875 255.867188 359.132812 258.675781 C 357.972656 261.480469 356.738281 264.257812 355.441406 267.003906 C 354.140625 269.75 352.777344 272.460938 351.34375 275.140625 C 349.914062 277.820312 348.414062 280.464844 346.855469 283.070312 C 345.292969 285.675781 343.667969 288.238281 341.980469 290.765625 C 340.292969 293.292969 338.542969 295.773438 336.734375 298.214844 C 334.925781 300.65625 333.054688 303.050781 331.128906 305.398438 C 329.203125 307.746094 327.21875 310.046875 325.175781 312.296875 C 323.136719 314.546875 321.042969 316.746094 318.894531 318.894531 C 316.746094 321.042969 314.546875 323.136719 312.296875 325.175781 C 310.046875 327.21875 307.746094 329.203125 305.398438 331.128906 C 303.050781 333.054688 300.65625 334.925781 298.214844 336.734375 C 295.773438 338.542969 293.292969 340.292969 290.765625 341.980469 C 288.238281 343.667969 285.675781 345.292969 283.070312 346.855469 C 280.464844 348.414062 277.820312 349.914062 275.140625 351.34375 C 272.460938 352.777344 269.75 354.140625 267.003906 355.441406 C 264.257812 356.738281 261.480469 357.972656 258.675781 359.132812 C 255.867188 360.296875 253.035156 361.390625 250.171875 362.414062 C 247.3125 363.4375 244.429688 364.386719 241.523438 365.269531 C 238.617188 366.152344 235.6875 366.960938 232.742188 367.699219 C 229.792969 368.4375 226.832031 369.105469 223.851562 369.695312 C 220.871094 370.289062 217.878906 370.808594 214.875 371.253906 C 211.871094 371.699219 208.855469 372.070312 205.832031 372.371094 C 202.808594 372.667969 199.78125 372.890625 196.746094 373.039062 C 193.710938 373.1875 190.675781 373.261719 187.636719 373.261719 C 184.601562 373.261719 181.566406 373.1875 178.53125 373.039062 C 175.496094 372.890625 172.46875 372.667969 169.445312 372.371094 C 166.421875 372.070312 163.40625 371.699219 160.402344 371.253906 C 157.398438 370.808594 154.402344 370.289062 151.425781 369.695312 C 148.445312 369.105469 145.480469 368.4375 142.535156 367.699219 C 139.589844 366.960938 136.660156 366.152344 133.753906 365.269531 C 130.847656 364.386719 127.964844 363.4375 125.101562 362.414062 C 122.242188 361.390625 119.410156 360.296875 116.601562 359.132812 C 113.796875 357.972656 111.019531 356.738281 108.273438 355.441406 C 105.527344 354.140625 102.816406 352.777344 100.136719 351.34375 C 97.457031 349.914062 94.8125 348.414062 92.207031 346.855469 C 89.601562 345.292969 87.035156 343.667969 84.511719 341.980469 C 81.984375 340.292969 79.5 338.542969 77.0625 336.734375 C 74.621094 334.925781 72.226562 333.054688 69.878906 331.128906 C 67.53125 329.203125 65.230469 327.21875 62.980469 325.175781 C 60.730469 323.136719 58.53125 321.042969 56.382812 318.894531 C 54.234375 316.746094 52.140625 314.546875 50.097656 312.296875 C 48.058594 310.046875 46.074219 307.746094 44.148438 305.398438 C 42.222656 303.050781 40.351562 300.65625 38.542969 298.214844 C 36.734375 295.773438 34.984375 293.292969 33.296875 290.765625 C 31.609375 288.238281 29.984375 285.675781 28.421875 283.070312 C 26.859375 280.464844 25.363281 277.820312 23.933594 275.140625 C 22.5 272.460938 21.132812 269.75 19.835938 267.003906 C 18.535156 264.257812 17.304688 261.480469 16.144531 258.675781 C 14.980469 255.867188 13.886719 253.035156 12.863281 250.171875 C 11.839844 247.3125 10.886719 244.429688 10.007812 241.523438 C 9.125 238.617188 8.316406 235.6875 7.578125 232.742188 C 6.839844 229.792969 6.171875 226.832031 5.582031 223.851562 C 4.988281 220.871094 4.46875 217.878906 4.023438 214.875 C 3.578125 211.871094 3.203125 208.855469 2.90625 205.832031 C 2.609375 202.808594 2.386719 199.78125 2.238281 196.746094 C 2.089844 193.710938 2.011719 190.675781 2.011719 187.636719 C 2.011719 184.601562 2.089844 181.5625 2.238281 178.53125 C 2.386719 175.496094 2.609375 172.46875 2.90625 169.445312 C 3.203125 166.421875 3.578125 163.40625 4.023438 160.402344 C 4.46875 157.398438 4.988281 154.402344 5.582031 151.425781 C 6.171875 148.445312 6.839844 145.480469 7.578125 142.535156 C 8.316406 139.589844 9.125 136.660156 10.007812 133.753906 C 10.886719 130.847656 11.839844 127.964844 12.863281 125.101562 C 13.886719 122.242188 14.980469 119.410156 16.144531 116.601562 C 17.304688 113.796875 18.535156 111.019531 19.835938 108.273438 C 21.132812 105.527344 22.5 102.816406 23.933594 100.136719 C 25.363281 97.457031 26.859375 94.8125 28.421875 92.207031 C 29.984375 89.601562 31.609375 87.035156 33.296875 84.511719 C 34.984375 81.984375 36.734375 79.5 38.542969 77.0625 C 40.351562 74.621094 42.222656 72.226562 44.148438 69.878906 C 46.074219 67.53125 48.058594 65.230469 50.097656 62.980469 C 52.140625 60.730469 54.234375 58.53125 56.382812 56.382812 C 58.53125 54.234375 60.730469 52.140625 62.980469 50.097656 C 65.230469 48.058594 67.53125 46.074219 69.878906 44.148438 C 72.226562 42.222656 74.621094 40.351562 77.0625 38.542969 C 79.5 36.734375 81.984375 34.984375 84.511719 33.296875 C 87.035156 31.609375 89.601562 29.984375 92.207031 28.421875 C 94.8125 26.859375 97.457031 25.363281 100.136719 23.933594 C 102.816406 22.5 105.527344 21.132812 108.273438 19.835938 C 111.019531 18.535156 113.796875 17.304688 116.601562 16.144531 C 119.410156 14.980469 122.242188 13.886719 125.101562 12.863281 C 127.964844 11.839844 130.847656 10.886719 133.753906 10.007812 C 136.660156 9.125 139.589844 8.316406 142.535156 7.578125 C 145.480469 6.839844 148.445312 6.171875 151.425781 5.582031 C 154.402344 4.988281 157.398438 4.46875 160.402344 4.023438 C 163.40625 3.578125 166.421875 3.203125 169.445312 2.90625 C 172.46875 2.609375 175.496094 2.386719 178.53125 2.238281 C 181.566406 2.089844 184.601562 2.011719 187.636719 2.011719 C 190.675781 2.011719 193.710938 2.089844 196.746094 2.238281 C 199.78125 2.386719 202.808594 2.609375 205.832031 2.90625 C 208.855469 3.203125 211.871094 3.578125 214.875 4.023438 C 217.878906 4.46875 220.871094 4.988281 223.851562 5.582031 C 226.832031 6.171875 229.792969 6.839844 232.742188 7.578125 C 235.6875 8.316406 238.617188 9.125 241.523438 10.007812 C 244.429688 10.886719 247.3125 11.839844 250.171875 12.863281 C 253.035156 13.886719 255.867188 14.980469 258.675781 16.144531 C 261.480469 17.304688 264.257812 18.535156 267.003906 19.835938 C 269.75 21.132812 272.460938 22.5 275.140625 23.933594 C 277.820312 25.363281 280.464844 26.859375 283.070312 28.421875 C 285.675781 29.984375 288.238281 31.609375 290.765625 33.296875 C 293.292969 34.984375 295.773438 36.734375 298.214844 38.542969 C 300.65625 40.351562 303.050781 42.222656 305.398438 44.148438 C 307.746094 46.074219 310.046875 48.058594 312.296875 50.097656 C 314.546875 52.140625 316.746094 54.234375 318.894531 56.382812 C 321.042969 58.53125 323.136719 60.730469 325.175781 62.980469 C 327.21875 65.230469 329.203125 67.53125 331.128906 69.878906 C 333.054688 72.226562 334.925781 74.621094 336.734375 77.0625 C 338.542969 79.5 340.292969 81.984375 341.980469 84.511719 C 343.667969 87.035156 345.292969 89.601562 346.855469 92.207031 C 348.414062 94.8125 349.914062 97.457031 351.34375 100.136719 C 352.777344 102.816406 354.140625 105.527344 355.441406 108.273438 C 356.738281 111.019531 357.972656 113.796875 359.132812 116.601562 C 360.296875 119.410156 361.390625 122.242188 362.414062 125.101562 C 363.4375 127.964844 364.386719 130.847656 365.269531 133.753906 C 366.152344 136.660156 366.960938 139.589844 367.699219 142.535156 C 368.4375 145.480469 369.105469 148.445312 369.695312 151.425781 C 370.289062 154.402344 370.808594 157.398438 371.253906 160.402344 C 371.699219 163.40625 372.070312 166.421875 372.371094 169.445312 C 372.667969 172.46875 372.890625 175.496094 373.039062 178.53125 C 373.1875 181.5625 373.261719 184.601562 373.261719 187.636719 Z M 373.261719 187.636719 " clip-rule="nonzero"/></clipPath><linearGradient x1="120" gradientTransform="matrix(1.546875, 0, 0, 1.546875, 2.013427, 2.0134)" y1="239.999989" x2="120" gradientUnits="userSpaceOnUse" y2="-0.00000105755" id="87a85b00e8"><stop stop-opacity="1" stop-color="rgb(11.399841%, 57.598877%, 82.398987%)" offset="0"/><stop stop-opacity="1" stop-color="rgb(11.564636%, 57.777405%, 82.501221%)" offset="0.03125"/><stop stop-opacity="1" stop-color="rgb(11.895752%, 58.132935%, 82.70874%)" offset="0.0625"/><stop stop-opacity="1" stop-color="rgb(12.226868%, 58.48999%, 82.914734%)" offset="0.09375"/><stop stop-opacity="1" stop-color="rgb(12.557983%, 58.84552%, 83.120728%)" offset="0.125"/><stop stop-opacity="1" stop-color="rgb(12.889099%, 59.202576%, 83.326721%)" offset="0.15625"/><stop stop-opacity="1" stop-color="rgb(13.220215%, 59.558105%, 83.532715%)" offset="0.1875"/><stop stop-opacity="1" stop-color="rgb(13.551331%, 59.915161%, 83.738708%)" offset="0.21875"/><stop stop-opacity="1" stop-color="rgb(13.882446%, 60.270691%, 83.946228%)" offset="0.25"/><stop stop-opacity="1" stop-color="rgb(14.213562%, 60.626221%, 84.152222%)" offset="0.28125"/><stop stop-opacity="1" stop-color="rgb(14.544678%, 60.983276%, 84.358215%)" offset="0.3125"/><stop stop-opacity="1" stop-color="rgb(14.877319%, 61.338806%, 84.564209%)" offset="0.34375"/><stop stop-opacity="1" stop-color="rgb(15.208435%, 61.695862%, 84.770203%)" offset="0.375"/><stop stop-opacity="1" stop-color="rgb(15.539551%, 62.051392%, 84.976196%)" offset="0.40625"/><stop stop-opacity="1" stop-color="rgb(15.870667%, 62.408447%, 85.183716%)" offset="0.4375"/><stop stop-opacity="1" stop-color="rgb(16.201782%, 62.763977%, 85.389709%)" offset="0.46875"/><stop stop-opacity="1" stop-color="rgb(16.532898%, 63.121033%, 85.595703%)" offset="0.5"/><stop stop-opacity="1" stop-color="rgb(16.864014%, 63.476562%, 85.801697%)" offset="0.53125"/><stop stop-opacity="1" stop-color="rgb(17.195129%, 63.833618%, 86.00769%)" offset="0.5625"/><stop stop-opacity="1" stop-color="rgb(17.526245%, 64.189148%, 86.213684%)" offset="0.59375"/><stop stop-opacity="1" stop-color="rgb(17.857361%, 64.546204%, 86.421204%)" offset="0.625"/><stop stop-opacity="1" stop-color="rgb(18.188477%, 64.901733%, 86.627197%)" offset="0.65625"/><stop stop-opacity="1" stop-color="rgb(18.521118%, 65.258789%, 86.833191%)" offset="0.6875"/><stop stop-opacity="1" stop-color="rgb(18.852234%, 65.614319%, 87.039185%)" offset="0.71875"/><stop stop-opacity="1" stop-color="rgb(19.18335%, 65.971375%, 87.245178%)" offset="0.75"/><stop stop-opacity="1" stop-color="rgb(19.514465%, 66.326904%, 87.451172%)" offset="0.78125"/><stop stop-opacity="1" stop-color="rgb(19.845581%, 66.68396%, 87.658691%)" offset="0.8125"/><stop stop-opacity="1" stop-color="rgb(20.176697%, 67.03949%, 87.864685%)" offset="0.84375"/><stop stop-opacity="1" stop-color="rgb(20.507812%, 67.39502%, 88.070679%)" offset="0.875"/><stop stop-opacity="1" stop-color="rgb(20.838928%, 67.752075%, 88.276672%)" offset="0.90625"/><stop stop-opacity="1" stop-color="rgb(21.170044%, 68.107605%, 88.482666%)" offset="0.9375"/><stop stop-opacity="1" stop-color="rgb(21.50116%, 68.464661%, 88.68866%)" offset="0.96875"/><stop stop-opacity="1" stop-color="rgb(21.832275%, 68.82019%, 88.896179%)" offset="1"/></linearGradient></defs><g clip-path="url(#044b300b4b)"><g clip-path="url(#e0f294db5d)"><path fill="url(#87a85b00e8)" d="M 2.011719 2.011719 L 2.011719 373.261719 L 373.261719 373.261719 L 373.261719 2.011719 Z M 2.011719 2.011719 " fill-rule="nonzero"/></g></g><path fill="#c8daea" d="M 127.664062 201.207031 L 149.6875 262.164062 C 149.6875 262.164062 152.441406 267.867188 155.390625 267.867188 C 158.335938 267.867188 202.191406 222.246094 202.191406 222.246094 L 250.957031 128.058594 L 128.449219 185.472656 Z M 127.664062 201.207031 " fill-opacity="1" fill-rule="nonzero"/><path fill="#a9c6d8" d="M 156.863281 216.839844 L 152.636719 261.769531 C 152.636719 261.769531 150.867188 275.539062 164.632812 261.769531 C 178.394531 248.003906 191.570312 237.386719 191.570312 237.386719 " fill-opacity="1" fill-rule="nonzero"/><path fill="#ffffff" d="M 128.0625 203.382812 L 82.761719 188.621094 C 82.761719 188.621094 77.347656 186.425781 79.089844 181.445312 C 79.449219 180.417969 80.171875 179.542969 82.339844 178.042969 C 92.375 171.046875 268.128906 107.875 268.128906 107.875 C 268.128906 107.875 273.089844 106.203125 276.015625 107.316406 C 276.753906 107.542969 277.382812 107.941406 277.902344 108.511719 C 278.425781 109.078125 278.769531 109.742188 278.933594 110.496094 C 279.25 111.808594 279.378906 113.140625 279.324219 114.492188 C 279.3125 115.65625 279.171875 116.734375 279.0625 118.425781 C 277.992188 135.695312 245.960938 264.59375 245.960938 264.59375 C 245.960938 264.59375 244.042969 272.136719 237.175781 272.394531 C 235.472656 272.449219 233.824219 272.167969 232.234375 271.554688 C 230.644531 270.9375 229.234375 270.039062 228.011719 268.847656 C 214.535156 257.257812 167.964844 225.960938 157.671875 219.074219 C 157.179688 218.738281 156.898438 218.277344 156.828125 217.683594 C 156.683594 216.957031 157.472656 216.058594 157.472656 216.058594 C 157.472656 216.058594 238.570312 143.976562 240.726562 136.40625 C 240.894531 135.820312 240.261719 135.53125 239.414062 135.789062 C 234.027344 137.769531 140.65625 196.734375 130.351562 203.242188 C 129.597656 203.472656 128.835938 203.515625 128.0625 203.382812 Z M 128.0625 203.382812 " fill-opacity="1" fill-rule="nonzero"/></svg>